<?xml version="1.0" encoding="UTF-8" standalone="no"?>
<svg
   xmlns:dc="http://purl.org/dc/elements/1.1/"
   xmlns:cc="http://creativecommons.org/ns#"
   xmlns:rdf="http://www.w3.org/1999/02/22-rdf-syntax-ns#"
   xmlns:svg="http://www.w3.org/2000/svg"
   xmlns="http://www.w3.org/2000/svg"
   xmlns:sodipodi="http://sodipodi.sourceforge.net/DTD/sodipodi-0.dtd"
   xmlns:inkscape="http://www.inkscape.org/namespaces/inkscape"
   sodipodi:docname="caminhaozinhoVeloz3.svg"
   inkscape:version="1.0 (4035a4fb49, 2020-05-01)"
   id="svg2642"
   version="1.1"
   viewBox="0 0 916 500"
   height="500mm"
   width="916mm">
  <defs
     id="defs2636">
    <rect
       id="rect1881"
       height="104.32143"
       width="409.7262"
       y="232.83333"
       x="52.916668" />
    <rect
       id="rect2494"
       height="104.32143"
       width="409.7262"
       y="232.83333"
       x="52.916668" />
    <rect
       x="52.916668"
       y="232.83333"
       width="409.7262"
       height="104.32143"
       id="rect1881-6" />
    <rect
       x="52.916668"
       y="232.83333"
       width="409.7262"
       height="104.32143"
       id="rect3101" />
  </defs>
  <sodipodi:namedview
     inkscape:window-maximized="0"
     inkscape:window-y="0"
     inkscape:window-x="0"
     inkscape:window-height="728"
     inkscape:window-width="1366"
     showgrid="false"
     inkscape:document-rotation="0"
     inkscape:current-layer="layer1"
     inkscape:document-units="px"
     inkscape:cy="852.60736"
     inkscape:cx="2072.0762"
     inkscape:zoom="0.175"
     inkscape:pageshadow="2"
     inkscape:pageopacity="0.0"
     borderopacity="1.0"
     bordercolor="#666666"
     pagecolor="#ffffff"
     id="base" />
  <metadata
     id="metadata2639">
    <rdf:RDF>
      <cc:Work
         rdf:about="">
        <dc:format>image/svg+xml</dc:format>
        <dc:type
           rdf:resource="http://purl.org/dc/dcmitype/StillImage" />
        <dc:title></dc:title>
      </cc:Work>
    </rdf:RDF>
  </metadata>
  <g
     id="layer1"
     inkscape:groupmode="layer"
     inkscape:label="Layer 1">
    <rect
       style="fill:#ffe680;fill-rule:evenodd;stroke-width:0.262865"
       id="rect10-6"
       width="917.76581"
       height="499.90948"
       x="0.82067931"
       y="2.3476856"
       inkscape:export-xdpi="96"
       inkscape:export-ydpi="96" />
    <path
       inkscape:export-ydpi="96"
       inkscape:export-xdpi="96"
       style="fill:#800000;stroke-width:0.342248"
       d="m 746.53839,453.00638 c 3.0343,-0.53767 5.8712,-2.17678 7.0172,-4.05439 0.8833,-1.4474 0.8137,-4.32484 -0.1393,-5.73833 -1.6983,-2.51981 -5.0748,-3.92596 -9.3752,-3.90411 -2.634,0.0131 -5.9157,0.89767 -7.2872,1.96388 -1.2146,0.94406 -2.47,2.94186 -2.6983,4.2937 -0.433,2.56442 2.4694,6.03375 5.8571,7.00106 1.726,0.4929 5.0694,0.71404 6.6253,0.43835 z m -94.6711,-0.27389 c 2.4502,-0.59394 5.0617,-2.15884 6.1016,-3.65623 0.5004,-0.72064 0.638,-1.56906 0.5311,-3.27601 -0.1315,-2.09605 -0.2721,-2.42514 -1.5641,-3.65149 -4.3305,-4.11098 -13.9721,-3.72644 -17.2451,0.68754 -1.5201,2.04998 -1.6897,3.69928 -0.5866,5.69993 2.0469,3.7111 7.4439,5.48597 12.7631,4.19667 z m 113.0946,-7.02764 c 1.4742,-0.35999 1.656,-0.97545 1.656,-5.60363 0,-3.20279 -0.1539,-4.70344 -0.5175,-5.0415 -0.4047,-0.37647 -4.7516,-0.97081 -19.9423,-2.72692 l -19.4249,-2.2456 -9.3695,-6.38086 -9.3694,-6.38087 h -53.9825 l -12.3179,6.67343 c -6.775,3.67042 -12.737,6.98777 -13.2496,7.37198 -0.9076,0.68053 -0.9315,0.86105 -0.9315,6.99453 0,7.57452 -0.097,7.39432 3.9568,7.39432 h 2.7816 l 0.6945,-1.69757 c 0.9838,-2.40517 1.7537,-3.27748 4.2456,-4.81172 3.1868,-1.96184 5.1802,-2.48736 9.4362,-2.48736 4.2112,0 6.4485,0.57453 9.3647,2.40476 2.029,1.27324 4.2917,4.06963 4.3032,5.31873 0.016,1.49176 -1.7254,1.42319 34.1335,1.34565 l 33.4663,-0.0726 0.6902,-1.69757 c 0.9771,-2.40223 1.7474,-3.27634 4.2416,-4.8118 3.1205,-1.92099 5.1942,-2.47962 9.2291,-2.48614 4.095,-0.008 6.2242,0.50872 9.1434,2.21314 2.3332,1.3622 4.7259,4.14579 4.7259,5.49763 0,0.4108 0.2236,0.89979 0.4968,1.08651 0.4957,0.33872 5.3093,0.44407 6.5413,0.14311 z m -81.1456,-13.94356 c -0.5062,-0.2182 -0.6449,-1.20907 -0.7504,-5.35689 -0.085,-3.31988 0.028,-5.29077 0.325,-5.66936 0.4422,-0.56466 0.7785,-0.58032 12.4554,-0.58032 h 12.0009 l 7.2356,4.73451 c 5.886,3.85151 7.236,4.87769 7.236,5.50097 0,1.64131 -0.078,1.64775 -19.8607,1.64302 -10.6094,0 -18.2761,-0.11448 -18.6419,-0.27218 z m -36.1931,-0.55088 c -0.6935,-0.44545 -1.0678,-0.98744 -1.0678,-1.54599 0,-0.73206 0.9422,-1.50399 6.3285,-5.18492 l 6.3285,-4.32486 h 9.7838 c 5.3814,0 10.0786,0.0775 10.4388,0.17172 0.5658,0.14832 0.655,0.91129 0.655,5.60193 0,3.93077 -0.1408,5.52674 -0.5112,5.77967 -0.3912,0.26737 -4.0719,0.3304 -15.6995,0.26884 l -15.1883,-0.0807 -1.068,-0.68591 z"
       fill="#010101"
       id="path10" />
    <path
       inkscape:export-ydpi="96"
       inkscape:export-xdpi="96"
       style="fill:#800080;stroke-width:0.425993"
       d="m 882.17019,456.08534 c 2.4189,-0.47138 6.2682,-2.98198 7.4191,-4.8388 1.842,-2.97219 0.8179,-7.60868 -2.2061,-9.98841 -4.3062,-3.38845 -12.9965,-3.48972 -17.4345,-0.20319 -4.7998,3.5543 -4.8626,9.24004 -0.1403,12.70139 3.3005,2.41903 7.6728,3.24282 12.362,2.32893 z m -7.521,-2.71526 c -4.2457,-1.55072 -6.0736,-4.47228 -4.7864,-7.64954 1.6015,-3.95262 6.9861,-5.87932 12.0754,-4.32094 2.3637,0.72383 3.4941,1.49136 4.6579,3.16267 2.3624,3.39245 0.271,7.36472 -4.78,9.07876 -2.6931,0.91389 -4.0647,0.86204 -7.1668,-0.27095 z m -45.0139,2.63021 c 4.2615,-0.97717 7.6106,-3.9333 8.3809,-7.39831 0.785,-3.52927 -2.8514,-8.136 -7.435,-9.41902 -3.4869,-0.97603 -8.5923,-0.63039 -11.3017,0.76524 -1.1672,0.60127 -2.7935,1.79322 -3.6138,2.64873 -1.8992,1.98043 -2.3756,5.72798 -1.0514,8.26956 2.2418,4.30234 8.8292,6.55365 15.0212,5.1338 z m -7.0324,-2.35926 c -6.7328,-2.28473 -7.73,-8.34172 -1.9093,-11.59596 1.5835,-0.88519 2.2809,-1.02405 5.1436,-1.02405 2.8627,0 3.5601,0.13886 5.1436,1.02405 4.8558,2.71469 5.0734,8.24445 0.4169,10.59743 -3.6214,1.82999 -5.662,2.0618 -8.7948,0.99878 z m 32.393,-3.69251 c 5.5904,-0.43224 7.6967,-1.53971 8.9322,-4.69659 1.1363,-2.90386 2.8838,-4.92751 5.5377,-6.41291 2.3342,-1.30634 6.2213,-2.37712 8.6287,-2.37712 1.6201,0 2.4775,-1.1802 2.4775,-3.4103 0,-1.98622 -1.8689,-3.39448 -6.5821,-4.95988 -3.7732,-1.25326 -4.6317,-1.34939 -5.0426,-0.5649 -0.1576,0.30088 -0.4792,0.54705 -0.7149,0.54705 -0.2356,0 -3.8634,-1.88732 -8.0619,-4.19406 -10.2762,-5.6462 -11.0798,-5.64294 -16.9394,0.0709 -1.9284,1.88038 -3.6211,3.63829 -3.7615,3.90631 -0.2398,0.45801 5.6461,3.88511 6.6085,3.84793 0.2246,-0.008 2.0264,-1.64979 4.0038,-3.64693 2.2293,-2.25147 3.9309,-3.63038 4.4783,-3.629 1.0247,0 12.5074,6.37166 12.9249,7.16887 0.3226,0.61619 -2.3973,2.83846 -4.4292,3.61863 -1.9124,0.73435 -3.1497,0.64017 -4.0044,-0.30463 -0.6983,-0.77177 -1.1383,-0.8277 -7.4002,-0.94007 l -6.6577,-0.11953 -3.5918,-1.9775 c -1.9755,-1.08765 -3.7774,-1.97757 -4.0042,-1.97757 -0.2269,0 -1.1856,0.89473 -2.1305,1.98834 l -1.718,1.98834 -6.0348,0.0171 c -6.4174,0.0187 -7.5643,0.31311 -6.9294,1.77935 0.2623,0.60568 0.9042,0.72489 4.6438,0.86269 5.2232,0.19235 8.1186,1.03522 10.9798,3.19593 3.1708,2.39473 4.3007,4.43289 4.3039,7.76402 v 2.82599 l 5.4734,-0.0489 c 3.0104,-0.0269 7.0633,-0.17197 9.0064,-0.32216 z m 3.9934,-30.43303 c 0.5017,-0.95825 -0.084,-1.41275 -2.3315,-1.80985 -2.1013,-0.37125 -2.2171,-0.45988 -2.3682,-1.81205 -0.1878,-1.68216 0.4825,-2.121 2.7712,-1.814 1.8141,0.24331 1.9951,-0.0497 0.7354,-1.18917 -1.2381,-1.12019 -2.7455,-1.59271 -5.0814,-1.59271 -4.1441,0 -6.6702,1.92155 -6.3796,4.85273 l 0.1516,1.52944 h 3.2441 c 2.8111,0 3.5808,0.15826 5.766,1.18525 2.8633,1.34581 3.1046,1.39074 3.4923,0.65028 z"
       fill="#010101"
       id="path12" />
    <path
       inkscape:export-ydpi="96"
       inkscape:export-xdpi="96"
       style="fill:#008080;stroke-width:0.425993"
       d="m 77.119251,453.24373 c 3.201,-0.74788 6.4671,-3.1917 7.2289,-5.40884 2.072,-6.03098 -2.794,-10.93361 -10.8827,-10.96427 -2.6253,-0.01 -3.656,0.17001 -5.4735,0.95588 -2.9653,1.28221 -4.2851,2.36823 -5.2078,4.2849 -3.296,6.84678 5.0242,13.3078 14.3351,11.13241 z m 141.330089,-0.32755 c 2.1363,-0.55805 4.9918,-2.39758 6.0755,-3.91356 0.8278,-1.15811 0.9312,-4.9081 0.1759,-6.37679 -0.728,-1.4152 -3.3621,-3.37752 -5.3879,-4.01386 -1.9462,-0.61122 -6.1731,-0.69651 -8.0858,-0.16308 -1.9673,0.54852 -4.9665,2.6188 -5.7273,3.95336 -0.8631,1.5141 -0.8641,4.9019 0,6.41136 0.911,1.59483 4.3174,3.77576 6.6339,4.24731 2.4796,0.50464 3.9615,0.47064 6.3174,-0.14482 z m -73.2699,-0.0351 c 6.0885,-1.37402 8.8277,-7.46795 5.1754,-11.51312 -1.5447,-1.71086 -3.1154,-2.49094 -6.1935,-3.07623 -6.2382,-1.18599 -12.3725,1.78392 -12.8761,6.23417 -0.3411,3.01549 0.2214,4.42743 2.4791,6.22284 1.4445,1.14865 2.7407,1.76435 4.5376,2.1555 3.0185,0.65696 3.8765,0.65411 6.8772,-0.0228 z m 90.4666,-8.50439 c 0.3182,-0.43591 0.5284,-3.40941 0.5284,-7.47709 v -6.75341 l -4.2295,-8.80936 c -2.3262,-4.84499 -4.2295,-9.17652 -4.2295,-9.62548 0,-0.44887 0.4585,-1.12051 1.0189,-1.49225 0.771,-0.51133 0.9829,-1.03547 0.8708,-2.15354 l -0.1482,-1.47765 -49.2612,-0.0951 c -36.2921,-0.0701 -49.6275,0.0155 -50.6545,0.32485 -0.7655,0.23101 -1.7043,0.86285 -2.0861,1.40403 -0.3819,0.54118 -2.1626,4.79028 -3.9572,9.44275 l -3.263,8.45882 v 8.02959 c 0,8.85599 0.2376,9.71191 2.9227,10.52698 2.3648,0.71795 3.08,0.39652 4.0156,-1.80439 1.3045,-3.06922 2.2596,-4.16487 5.05,-5.79321 3.0057,-1.75407 5.5182,-2.3648 9.7184,-2.36236 3.5025,0 7.2822,1.16553 10.0751,3.10135 1.7825,1.23541 3.8326,4.0941 4.3439,6.05724 l 0.3086,1.18526 h 21.6053 c 16.8623,0 21.6426,-0.10005 21.775,-0.45589 1.6144,-4.34352 1.9756,-4.88763 4.3823,-6.60135 3.3558,-2.38975 6.2015,-3.26997 10.5937,-3.2769 4.0141,-0.008 6.3572,0.61366 9.5372,2.52372 2.5993,1.56099 4.5491,3.8953 5.0461,6.04044 l 0.3676,1.58765 2.5699,0.10943 c 2.1439,0.0912 2.6574,-0.0114 3.0983,-0.61424 z m -28.3954,-17.78521 c -0.5035,-0.44399 -0.7269,-2.22937 -0.8503,-6.7955 -0.092,-3.40614 -0.027,-6.74029 0.1439,-7.40956 0.5668,-2.21494 1.0363,-2.3339 9.2093,-2.3339 6.298,0 7.5236,0.093 8.4033,0.6382 1.0224,0.6334 7.539,13.17946 7.539,14.51426 0,0.36 -0.3706,0.95458 -0.8236,1.32143 -0.7506,0.60796 -1.8006,0.66691 -11.8814,0.66691 -9.6716,0 -11.1435,-0.0758 -11.7406,-0.60225 z m -25.3989,0 c -1.345,-0.89213 -1.1602,-1.91593 1.6076,-8.90411 1.7163,-4.33341 2.8424,-6.55984 3.5382,-6.99493 0.8608,-0.53825 2.0559,-0.63821 7.628,-0.63821 9.51,0 8.9566,-0.54036 8.9566,8.75056 0,6.86032 -0.065,7.39024 -0.9658,7.87312 -0.7537,0.40378 -3.0411,0.51745 -10.4101,0.51745 -8.0898,0 -9.5746,-0.0866 -10.3543,-0.60364 z m -27.1828,0.16593 c -0.3284,-0.24071 -0.5971,-0.98581 -0.5971,-1.65582 0,-1.86171 4.8789,-14.06277 5.8347,-14.59164 0.5896,-0.32607 3.4175,-0.45589 9.9344,-0.45589 8.447,0 9.1825,0.053 10.1055,0.72946 0.5474,0.40117 0.9952,0.89122 0.9952,1.08912 0,0.87206 -5.1366,13.76336 -5.7785,14.50186 -0.6992,0.80455 -0.9009,0.82053 -10.3051,0.82053 -6.797,0 -9.7661,-0.12745 -10.1891,-0.43762 z m -25.1924,-0.13552 c -1.2185,-0.8931 -0.9369,-2.42335 1.6704,-9.07664 1.7812,-4.54558 2.7154,-6.35811 3.524,-6.83806 0.9657,-0.57314 2.1888,-0.65296 10.0015,-0.65296 8.2381,0 8.9755,0.0546 9.8965,0.72937 0.5474,0.40117 0.9952,1.02813 0.9952,1.39326 0,1.04754 -4.9774,13.28603 -5.7745,14.19772 -0.7022,0.80357 -0.913,0.82061 -10.1244,0.82061 -7.8888,0 -9.5333,-0.0925 -10.1891,-0.57305 z m -11.2311,17.54345 c 0,-0.43216 -1.0667,-0.55496 -5.54462,-0.63821 -5.74963,-0.10698 -5.87953,-0.14319 -6.59904,-1.8441 -0.2503,-0.59181 -1.0047,-0.63837 -8.866529,-0.54705 l -8.5934,0.0998 0.1713,1.45882 c 0.094,0.80235 0.2749,1.58186 0.4012,1.7323 0.1264,0.15044 6.71,0.27349 14.630619,0.27349 12.32637,0 14.40077,-0.0775 14.40077,-0.53506 z M 57.927851,443.1505 c 0.2442,-0.8525 0.3563,-1.67311 0.2486,-1.82355 -0.2313,-0.3233 -16.2537,-0.37467 -16.6921,-0.0538 -0.1655,0.12109 0.1787,0.94162 0.7626,1.82355 l 1.0629,1.60339 h 14.1734 l 0.4444,-1.54998 z m 48.166929,-5.50293 c 0.1407,-0.26868 0.1897,-5.1237 0.1089,-10.78889 l -0.147,-10.30054 -1.62511,-1.06369 -1.625,-1.06368 H 73.680751 c -32.5861,0 -31.5581,-0.0775 -32.5646,2.4638 -0.3481,0.87858 -0.4881,4.87711 -0.3923,11.21232 l 0.1485,9.84686 9.785,0.0988 9.7851,0.0987 2.3199,-1.47162 c 2.9159,-1.84964 4.2609,-2.35314 7.8411,-2.93542 4.8091,-0.78212 10.3358,0.45442 13.7811,3.0835 l 1.7148,1.30838 h 9.8697 c 7.788219,0 9.923929,-0.10315 10.125429,-0.4885 z"
       fill="#010101"
       id="path18" />
    <path
       inkscape:export-ydpi="96"
       inkscape:export-xdpi="96"
       style="fill:#008080;stroke-width:0.425993"
       d="m 794.83003,393.69762 c -4.9218,-1.2301 -7.0637,-3.4898 -7.0637,-7.45229 0,-2.03938 0.2084,-2.56621 1.6172,-4.08895 2.1178,-2.28939 4.6618,-3.24951 8.6222,-3.25416 6.0367,-0.008 10.1617,3.06221 10.1617,7.56164 0,4.31514 -2.8949,6.67253 -9.4542,7.69878 -0.6842,0.10715 -2.4317,-0.10208 -3.8832,-0.46493 z m 73.8819,0.16961 c -2.9263,-0.56589 -6.59,-3.03735 -7.3071,-4.92963 -1.0477,-2.76443 -0.2748,-5.53612 2.0958,-7.515 1.8908,-1.57835 3.4634,-2.19683 6.4094,-2.52062 3.1343,-0.34451 6.096,0.3264 8.5212,1.9306 2.5288,1.67238 3.3788,3.11342 3.3788,5.72725 0,3.31898 -2.6649,6.1718 -6.5806,7.04451 -3.0679,0.68387 -4.1203,0.72628 -6.5179,0.26264 z m -91.1233,-8.43803 c -0.7498,-0.54965 -0.8205,-1.43917 -0.6462,-8.13282 l 0.1956,-7.51573 4.0692,-8.17065 c 2.238,-4.4938 4.069,-8.63209 4.069,-9.19585 0,-0.65199 -0.3623,-1.16732 -0.9953,-1.41561 -0.7669,-0.30088 -0.995,-0.76361 -0.995,-2.01867 v -1.62834 h 49.7935 c 33.1987,0 50.1121,0.12516 50.7491,0.37549 1.5502,0.60812 2.3894,2.2005 5.7407,10.89391 l 3.1772,8.24224 v 8.29101 8.29109 l -1.3748,1.12785 c -0.9755,0.80015 -1.8694,1.1462 -3.0768,1.19105 -1.5961,0.0595 -1.7271,-0.0245 -2.114,-1.35274 -1.6126,-5.53644 -8.4499,-9.33626 -15.9994,-8.89203 -3.4425,0.20246 -5.5883,0.88258 -8.4695,2.68395 -2.5925,1.62124 -3.2516,2.37508 -4.5536,5.20824 l -1.11,2.41569 h -43.1375 l -0.353,-1.51582 c -1.3958,-5.99265 -9.9537,-9.98686 -18.2664,-8.52519 -2.3297,0.40966 -6.3716,2.26982 -7.9162,3.64294 -1.3369,1.18893 -2.7975,3.54117 -3.0666,4.93949 -0.2776,1.44178 -0.3076,1.46005 -2.5842,1.56809 -1.6508,0.0783 -2.5415,-0.0652 -3.1452,-0.50775 z m 27.7849,-17.8484 c 1.1752,-0.86138 1.3802,-2.41381 1.2087,-9.15027 -0.1166,-4.60355 -0.3366,-6.38478 -0.8414,-6.82965 -0.5819,-0.51289 -1.8334,-0.60111 -8.459,-0.59638 -4.2769,0 -8.0474,0.13193 -8.3788,0.28628 -0.7455,0.3472 -1.4101,1.5062 -4.869,8.48988 -1.5062,3.04101 -2.7386,5.83773 -2.7386,6.21477 0,0.37712 0.4478,1.01378 0.9952,1.41495 0.9332,0.68404 1.6586,0.72946 11.658,0.72946 8.9137,0 10.7878,-0.0917 11.4251,-0.55879 z m 25.766,-0.0448 c 0.5104,-0.33856 0.9084,-1.09916 0.9065,-1.73231 0,-1.58121 -5.2337,-14.10615 -6.0463,-14.4836 -0.3671,-0.17058 -3.8154,-0.31262 -7.6629,-0.31572 -5.266,-0.008 -7.2344,0.12248 -7.9613,0.51215 -0.9003,0.48247 -0.9659,1.01215 -0.9659,7.80267 0,6.65215 0.083,7.35159 0.9478,8.05291 0.9005,0.72921 1.4226,0.76769 10.4102,0.76769 8.1067,0 9.5924,-0.0865 10.3721,-0.60355 z m 26.9977,0.0302 c 0.4301,-0.31514 0.7819,-1.09491 0.7819,-1.73271 0,-1.40337 -4.6943,-13.59963 -5.5123,-14.32247 -0.4621,-0.40803 -2.5449,-0.51264 -10.211,-0.51264 h -9.6308 l -0.8072,0.90305 c -0.7692,0.86024 -0.6757,1.2438 1.9762,8.11455 1.7324,4.48834 3.1023,7.38364 3.6276,7.6674 0.6025,0.32542 3.441,0.45588 9.9189,0.45588 7.5863,0 9.203,-0.094 9.8568,-0.57314 z m 25.2492,-0.0302 c 1.3585,-0.9011 1.1402,-2.29126 -1.3644,-8.6864 -2.3164,-5.91429 -2.9246,-7.09661 -3.8956,-7.57183 -0.3013,-0.14742 -4.6725,-0.27046 -9.7139,-0.27356 -7.8382,-0.008 -9.298,0.0819 -10.0764,0.59801 -0.5004,0.33195 -0.9061,0.94741 -0.9016,1.36766 0.019,1.58072 5.4327,14.25023 6.2874,14.70824 0.6186,0.33146 3.379,0.46135 9.8076,0.46135 7.6266,0 9.0809,-0.089 9.8567,-0.60356 z"
       fill="#010101"
       id="path22" />
    <path
       inkscape:export-ydpi="96"
       inkscape:export-xdpi="96"
       style="fill:#800080;stroke-width:0.425993"
       d="m 884.55216,71.70417 c 1.1264,-0.375 2.6883,-1.296966 3.4708,-2.048759 1.1698,-1.124183 1.4516,-1.795497 1.5858,-3.777964 0.194,-2.867578 -0.6726,-4.350453 -3.5157,-6.015325 -1.5446,-0.904516 -2.4495,-1.129972 -5.0167,-1.249754 -4.1084,-0.19178 -6.7408,0.741601 -8.7984,3.11929 -5.1441,5.944955 3.4346,12.914698 12.2745,9.972349 z m -80.1715,0.179305 c 1.8734,-0.614644 4.5003,-2.623938 5.1944,-3.973007 0.7995,-1.554385 0.6156,-3.902638 -0.439,-5.605018 -1.9898,-3.212244 -8.3729,-4.75024 -12.8174,-3.088223 -5.5108,2.060501 -7.1125,6.68672 -3.5597,10.281221 2.515,2.544681 7.8181,3.632987 11.6222,2.384946 z m -37.8167,0 c 1.8734,-0.614644 4.5002,-2.623938 5.1943,-3.973007 0.7996,-1.554385 0.6157,-3.902638 -0.4389,-5.605018 -1.9898,-3.212244 -8.373,-4.75024 -12.8174,-3.088223 -5.5108,2.060501 -7.1126,6.68672 -3.5597,10.281221 2.515,2.544681 7.8181,3.632987 11.6222,2.384946 z m 99.4232,-7.049243 c 0.1166,-0.150441 0.5831,-1.094096 1.0369,-2.097031 0.4537,-1.002934 1.6198,-2.61774 2.5913,-3.588467 4.6476,-4.644076 15.2382,-5.018178 20.6698,-0.730756 1.5612,1.232387 3.1541,3.486054 3.6474,5.160873 0.3063,1.039709 0.538,1.19072 1.6779,1.094096 l 1.3225,-0.112199 0.1345,-7.540518 0.1343,-7.540518 -3.5694,-6.98654 c -2.7935,-5.46795 -3.8029,-7.051445 -4.644,-7.285952 -1.1793,-0.328604 -24.6674,-1.450342 -25.2695,-1.206702 -0.2053,0.08309 -0.3732,5.442347 -0.3732,11.909236 0,8.658994 -0.1574,11.87344 -0.5971,12.195847 -0.4489,0.329011 -6.9329,0.437622 -26.1234,0.437622 -14.0395,0 -25.5263,0.07502 -25.5263,0.166177 0,0.09141 0.5368,0.745922 1.1929,1.454581 0.6562,0.708659 1.4622,2.110892 1.7912,3.11611 l 0.5983,1.827705 h 25.5467 c 14.0509,0 25.6422,-0.123043 25.7586,-0.273483 z m 16.1706,-15.745094 c -4.8423,-0.378995 -9.0407,-0.796232 -9.3298,-0.927184 -0.3312,-0.150033 -0.5256,-2.257582 -0.5256,-5.698381 0,-4.601431 0.1217,-5.494532 0.7732,-5.677995 0.4252,-0.119537 4.0109,-0.06523 7.9683,0.120759 5.2172,0.245108 7.3987,0.487198 7.9351,0.880463 0.8063,0.590916 5.6994,9.644479 5.7093,10.563102 0.01,0.83904 -1.023,1.441372 -2.4572,1.434441 -0.6979,0 -5.2306,-0.31621 -10.0732,-0.695205 z m -95.7858,15.745094 c 0.1172,-0.150441 0.3569,-0.859996 0.533,-1.576809 0.1761,-0.716731 0.9844,-2.070693 1.796,-3.008722 l 1.4757,-1.70556 h -8.448 c -4.6465,0 -8.4481,0.07502 -8.4481,0.166178 0,0.09141 0.5369,0.746003 1.193,1.454662 0.6561,0.708578 1.4621,2.110892 1.7911,3.11611 l 0.5983,1.827624 h 4.6481 c 2.5564,0 4.7438,-0.123043 4.8609,-0.273483 z m -37.8575,0.04892 c 0.1395,-0.177266 0.398,-0.908756 0.5741,-1.625488 0.176,-0.716812 0.9843,-2.070774 1.796,-3.008803 l 1.4757,-1.705478 h -18.4362 l 0.1482,2.246981 0.1482,2.247062 3.4831,0.87451 c 3.6567,0.918134 10.3772,1.521852 10.8111,0.971216 z M 855.87906,40.855209 V 26.449644 h -121.9091 v 28.811211 h 121.9091 z"
       fill="#010101"
       id="path24" />
    <path
       inkscape:export-ydpi="96"
       inkscape:export-xdpi="96"
       style="fill:#800080;stroke-width:0.425993"
       d="m 889.01549,218.01088 c 3.6023,-1.37321 5.2246,-3.33578 5.2246,-6.32029 0,-2.12361 -0.6416,-3.53399 -2.1479,-4.72064 -4.1112,-3.23948 -11.8634,-2.88625 -15.0903,0.68754 -1.0398,1.15166 -1.427,2.08309 -1.5658,3.76663 -0.1676,2.0318 -0.036,2.40003 1.4381,4.01647 1.0639,1.16691 2.3196,2.01158 3.6476,2.45368 2.482,0.82624 6.488,0.88128 8.4938,0.11661 z m -80.1118,0.0677 c 2.1818,-0.69797 5.1128,-3.2438 5.5069,-4.78342 0.8438,-3.29672 -1.1434,-6.46795 -4.8846,-7.79541 -9.1183,-3.23524 -18.14,4.21623 -12.2815,10.14374 2.5956,2.62614 7.7176,3.69586 11.6595,2.43501 z m -58.7154,-0.066 c 2.5442,-0.96788 4.2071,-2.41129 5.0585,-4.39098 0.7078,-1.64579 0.7296,-2.13218 0.1623,-3.61733 -1.2315,-3.2235 -4.8714,-5.28482 -9.3059,-5.26989 -5.3899,0.0179 -9.1094,2.57534 -9.4995,6.53106 -0.2225,2.25521 0.3406,3.38021 2.6231,5.23996 2.447,1.99397 7.7614,2.72448 10.9619,1.50701 z m -50.2564,0 c 2.5441,-0.96788 4.207,-2.41129 5.0586,-4.39098 0.7076,-1.64579 0.7294,-2.13218 0.1617,-3.61733 -1.2315,-3.2235 -4.8715,-5.28482 -9.306,-5.26989 -5.39,0.0179 -9.1093,2.57534 -9.4994,6.53106 -0.2226,2.25521 0.3404,3.38021 2.623,5.23996 2.4469,1.99397 7.7614,2.72448 10.9619,1.50701 z m 200.6525,-7.11741 c 1.1097,-0.30741 1.1197,-0.37541 1.1329,-7.70719 l 0.013,-7.39676 -3.6047,-7.05952 c -2.7336,-5.3538 -3.8519,-7.12842 -4.6276,-7.34466 -1.1148,-0.31067 -24.649,-1.42229 -25.2576,-1.193 -0.2052,0.0775 -0.3732,5.43182 -0.3732,11.89896 0,8.65907 -0.1574,11.87352 -0.5971,12.19593 -0.4489,0.32901 -6.9329,0.43762 -26.1234,0.43762 -14.0394,0 -25.5263,0.0972 -25.5263,0.216 0,0.1188 0.4234,0.61048 0.9409,1.09262 0.5175,0.48215 1.3441,1.86342 1.837,3.06955 l 0.8962,2.19292 25.6134,-0.0944 25.6134,-0.0945 0.9253,-2.00579 c 2.7397,-5.93908 10.523,-8.98401 17.8171,-6.97015 4.8317,1.33398 8.1411,4.07477 9.1825,7.60436 0.4186,1.41903 0.6819,1.56165 2.1378,1.15835 z m -14.339,-15.60583 c -4.534,-0.3569 -8.5083,-0.76892 -8.8322,-0.91552 -0.4106,-0.18599 -0.5886,-1.91756 -0.5886,-5.72692 0,-4.58203 0.1234,-5.49519 0.7668,-5.67612 0.4218,-0.11864 4.022,-0.0538 8.0003,0.14416 5.1898,0.25815 7.4409,0.5119 7.9678,0.89807 1.229,0.90077 5.7552,10.16454 5.4297,11.11382 -0.3605,1.053 -1.2845,1.06483 -12.7442,0.16267 z m -95.3877,15.7729 c 0.1378,-0.17507 0.3947,-0.90484 0.5708,-1.62157 0.176,-0.71682 0.9843,-2.07078 1.796,-3.00881 l 1.4757,-1.70548 h -18.4362 l 0.1482,2.27936 0.1482,2.27935 3.4831,0.85168 c 3.6555,0.89375 10.3862,1.46975 10.8146,0.92547 z m -22.0103,-4.14775 v -2.18819 h -12.5373 l 1.0736,1.18526 c 0.5904,0.65191 1.306,1.63658 1.5903,2.18819 0.5132,0.99609 0.5484,1.00294 5.1953,1.00294 h 4.6784 v -2.1882 z m -35.5985,1.20752 c 0.1843,-0.53938 0.7688,-1.42629 1.2978,-1.97097 0.5293,-0.54468 0.9622,-1.08806 0.9622,-1.20752 0,-0.11953 -6.6275,-0.21722 -14.7276,-0.21722 h -14.7277 l 1.0736,1.18526 c 0.5904,0.65191 1.3061,1.63658 1.5903,2.18819 l 0.5168,1.00294 h 23.6793 l 0.3357,-0.98068 z m -50.2564,0 c 0.1843,-0.53938 0.7688,-1.42629 1.2978,-1.97097 0.5292,-0.54468 0.9622,-1.08806 0.9622,-1.20752 0,-0.11953 -2.799,-0.21722 -6.2199,-0.21722 h -6.2199 v 4.37639 h 9.8439 l 0.3357,-0.98068 z m 177.4101,-21.08364 v -14.40556 h -84.0924 v 28.81112 h 84.0924 z m -97.5273,0 v -14.40556 h -90.0635 v 28.81112 h 90.0635 z"
       fill="#010101"
       id="path26" />
    <path
       inkscape:export-ydpi="96"
       inkscape:export-xdpi="96"
       style="fill:#800000;stroke-width:0.425993"
       d="m 787.19164,146.95573 c -4.2988,-0.82135 -6.819,-3.31972 -6.819,-6.76003 0,-2.31832 0.919,-3.95775 2.9053,-5.1828 4.7942,-2.9567 12.3436,-1.95091 14.9475,1.99143 1.6264,2.46258 1.4343,4.88152 -0.5617,7.07045 -2.4613,2.69928 -6.1343,3.70971 -10.4723,2.88079 z m 78.0218,-0.51533 c -3.3212,-1.51704 -5.2271,-3.7054 -5.2216,-5.99494 0.019,-4.3498 4.4737,-7.42384 10.292,-7.08903 6.1373,0.35314 10.4444,4.77861 8.6119,8.84906 -0.7748,1.72072 -3.2744,3.79908 -5.3238,4.42669 -2.3592,0.72252 -6.5681,0.62598 -8.3585,-0.19178 z m -91.4318,-7.00407 c -0.7842,-0.33415 -0.8708,-1.10861 -0.8708,-7.78522 v -7.41429 l 3.2585,-6.33488 c 1.7922,-3.48426 3.5818,-6.69659 3.9769,-7.13861 0.3975,-0.44456 1.4427,-0.89424 2.3394,-1.00636 2.3407,-0.29281 23.7872,-1.15142 24.0445,-0.96266 0.1192,0.0874 0.2166,5.5296 0.2166,12.09417 0,10.54704 0.092,11.96101 0.7871,12.15646 0.4329,0.12174 12.1884,0.22138 26.1234,0.22138 14.2021,0 25.3361,0.14058 25.3361,0.32005 0,0.17604 -0.3302,0.52095 -0.734,0.76647 -0.4036,0.24559 -1.232,1.58007 -1.8407,2.9655 l -1.107,2.519 -25.6508,-0.0944 -25.6506,-0.0943 -0.8343,-1.90908 c -1.7988,-4.11562 -6.4498,-7.06164 -12.0337,-7.62288 -3.9403,-0.39587 -9.9274,1.4943 -12.3671,3.90444 -0.5217,0.51541 -1.4665,1.98556 -2.0996,3.26695 -1.2329,2.4956 -1.5413,2.72456 -2.8938,2.14824 z m 13.7961,-15.48988 c 4.3854,-0.31197 8.4774,-0.71868 9.0929,-0.90394 1.0912,-0.32812 1.1196,-0.47627 1.1196,-5.8264 0,-4.56751 -0.1265,-5.52519 -0.7539,-5.70172 -1.3753,-0.38674 -15.256,0.50693 -15.9571,1.02731 -1.1936,0.88617 -5.7676,10.20939 -5.4556,11.12043 0.3597,1.0503 0.9818,1.06506 11.9541,0.28457 z m 96.129,15.64154 c -0.1824,-0.13364 -0.3317,-0.59132 -0.3317,-1.01696 0,-0.79599 -1.0876,-2.53628 -2.688,-4.30161 l -0.9095,-1.00285 h 18.5725 l -0.1485,2.27935 -0.1486,2.27935 -3.9808,0.97905 c -3.7883,0.93175 -9.5681,1.36872 -10.3663,0.78367 z m -69.498,-24.00919 v -14.40556 h 84.0925 v 28.81121 h -84.0925 z"
       fill="#010101"
       id="path28" />
    <path
       inkscape:export-ydpi="96"
       inkscape:export-xdpi="96"
       style="fill:#008080;stroke-width:0.425993"
       d="m 208.1614,287.79973 c 0.3634,-0.49771 0.4975,-3.18509 0.3962,-7.93949 l -0.1533,-7.18745 -4.1051,-8.3352 c -2.2578,-4.58431 -4.1051,-8.77103 -4.1051,-9.30348 0,-0.57298 0.4061,-1.15379 0.9951,-1.42344 0.7553,-0.34572 0.9952,-0.85045 0.9952,-2.0936 v -1.63805 h -73.86699 c -56.212504,0 -74.180504,0.10421 -75.170704,0.43575 -0.7176,0.23964 -1.6108,0.86962 -1.9851,1.40003 -0.3742,0.53033 -2.1487,4.77095 -3.9434,9.4231 l -3.263,8.45873 v 8.02959 c 0,8.80716 0.2454,9.71412 2.8411,10.50228 0.9495,0.28824 4.8122,0.39204 12.0899,0.32493 l 10.6947,-0.0987 0.1751,-0.91047 c 0.096,-0.50081 0.7908,-1.9059 1.5434,-3.12247 1.4816,-2.39489 4.3243,-4.40924 7.7739,-5.5088 2.4813,-0.79085 8.7167,-0.81776 11.1574,-0.0481 4.350703,1.37206 8.413203,5.07917 9.213403,8.40777 l 0.3295,1.37052 28.926301,-0.0941 28.92629,-0.0942 0.353,-1.51573 c 0.7703,-3.30757 4.2017,-6.37785 8.8188,-7.89024 2.7035,-0.88577 7.7832,-1.03295 10.6419,-0.30847 4.5214,1.14604 8.966,4.85999 9.7264,8.12695 l 0.3694,1.58766 10.0398,0.0987 c 9.7025,0.0953 10.0583,0.0734 10.5892,-0.6537 z m -28.4317,-17.73604 c -0.5297,-0.46771 -0.6829,-2.27462 -0.6829,-8.05291 0,-6.95327 0.064,-7.48434 0.9659,-7.96713 0.7335,-0.39319 2.7794,-0.5177 8.5062,-0.5177 6.5781,0 7.642,0.0824 8.3366,0.64465 0.9226,0.74723 7.3195,13.36839 7.3195,14.44169 0,0.39628 -0.3705,1.02071 -0.8235,1.38756 -0.7507,0.60795 -1.8006,0.66691 -11.8814,0.66691 -9.6786,0 -11.143,-0.075 -11.7406,-0.60307 z m -25.3989,0 c -0.5159,-0.34214 -0.9046,-1.09238 -0.8976,-1.7323 0.017,-1.6069 5.2241,-14.10583 6.0322,-14.48148 0.3701,-0.1718 3.829,-0.31499 7.6863,-0.31809 9.3481,-0.008 8.858,-0.41723 9.0685,7.58798 0.1727,6.5671 -0.038,8.12948 -1.2096,8.98874 -1.1776,0.86309 -19.3706,0.82363 -20.6802,-0.0448 z m -25.37699,0 c -0.5005,-0.33195 -0.91,-0.91903 -0.91,-1.30463 0,-1.30137 5.0704,-13.95041 5.8497,-14.59449 0.6836,-0.56442 1.8379,-0.63821 9.9865,-0.63821 12.37759,0 12.35319,-0.0187 9.51449,7.23964 -2.45329,6.27282 -3.53749,8.5843 -4.34489,9.26296 -0.6718,0.56482 -1.8188,0.6382 -9.9727,0.6382 -7.8748,0 -9.3457,-0.0876 -10.1234,-0.60355 z m -25.5766,-0.29737 c -0.7667,-0.85763 -0.6714,-1.24747 1.9835,-8.11456 1.7137,-4.43248 3.1116,-7.38951 3.6258,-7.66959 0.5977,-0.32559 3.4298,-0.45589 9.9114,-0.45589 10.0573,0 10.6385,0.12492 10.6385,2.2853 0,1.44619 -4.3224,12.94128 -5.2774,14.03505 -0.7028,0.8048 -0.9021,0.82053 -10.3967,0.82053 h -9.68 l -0.8054,-0.90092 z m -24.992304,0.46339 c -0.3285,-0.24079 -0.5972,-0.9859 -0.5972,-1.65591 0,-1.8617 4.8789,-14.06277 5.8347,-14.59155 0.5896,-0.32616 3.4175,-0.45589 9.934403,-0.45589 8.447101,0 9.182501,0.053 10.105501,0.72937 0.5474,0.40117 0.9952,0.89131 0.9952,1.08912 0,0.87207 -5.136601,13.76336 -5.778501,14.50195 -0.6992,0.80446 -0.9009,0.82053 -10.305003,0.82053 -6.7971,0 -9.7662,-0.12745 -10.1891,-0.43762 z m -25.0641,-0.16602 c -1.337,-0.88682 -1.1518,-2.04313 1.3776,-8.59955 2.3279,-6.03465 2.9098,-7.1824 3.8824,-7.65834 0.3012,-0.14735 4.6723,-0.27047 9.7139,-0.27349 7.8381,0 9.298,0.0819 10.0762,0.59801 0.5005,0.33195 0.91,0.95891 0.91,1.39327 0,1.13845 -4.9226,13.34873 -5.7746,14.32353 -0.7017,0.80284 -0.9177,0.82061 -9.9965,0.82061 -7.9361,0 -9.4109,-0.0874 -10.1891,-0.60363 z m 122.615694,26.0975 c 2.5227,-0.57665 5.3466,-2.39971 6.3368,-4.09083 0.8924,-1.5243 0.8827,-5.33594 -0.017,-6.5945 -0.8351,-1.16822 -3.5216,-3.07673 -5.267,-3.74176 -1.739,-0.66251 -6.8841,-0.59769 -8.7078,0.10967 -1.9721,0.76508 -4.5355,2.75815 -5.1943,4.03873 -0.7428,1.44398 -0.6568,4.79468 0.1589,6.18778 0.9888,1.68908 3.6723,3.38429 6.4209,4.05617 2.8145,0.68803 3.3964,0.69121 6.2696,0.0351 z m -87.515794,-0.15737 c 7.399603,-1.88715 9.391503,-8.65981 3.7241,-12.66087 -3.7079,-2.61758 -9.3875,-2.92188 -13.313,-0.7133 -3.2833,1.84735 -4.0402,2.85159 -4.2557,5.64701 -0.1424,1.84629 0.029,2.80495 0.6648,3.72643 2.6113,3.78269 7.8266,5.36578 13.1797,4.0004 z"
       fill="#010101"
       id="path30" />
    <g
       inkscape:export-ydpi="96"
       inkscape:export-xdpi="96"
       transform="matrix(0.77322604,0,0,0.64334571,194.45495,-29.028721)"
       id="g1491">
      <path
         d="m 594.53,581.25 c -1.2051,-6.6203 -0.26,-14.642 4.4431,-17.897 2.1833,-1.8247 4.8167,-3.2348 7.6096,-2.3906 2.9882,0.52403 4.5049,4.3003 5.1502,7.6802 1.7775,4.5934 6.9431,4.877 9.1018,1.3724 1.1616,-2.1598 3.9513,-3.148 5.4762,-0.53989 1.8885,2.236 0.8846,6.8418 3.9994,7.2089 3.5212,1.1078 7.4484,-1.6032 10.639,1.8109 4.47,3.0131 3.8295,12.168 -0.3281,14.226 -2.4924,1.9455 -5.7254,2.1551 -8.5891,0.56515 -2.411,-0.86539 -4.3481,-4.0953 -6.9395,-3.5832 -3.7235,1.3135 -3.926,8.3071 -7.9078,9.1434 -2.4113,0.26455 -3.3777,-3.4912 -5.1261,-5.0059 -2.2423,1.3713 -1.1769,6.3492 -2.8203,8.7702 -1.0748,3.0797 -3.9498,5.3613 -6.6436,3.4406 -2.2184,-1.5082 -3.395,-4.7797 -5.5326,-6.5161 -1.9354,-2.164 -4.5351,-0.89397 -5.6002,1.5211 -3.532,4.0394 -8.8948,2.7867 -13.35,1.3668 -4.3836,-1.0669 -7.2077,-8.9923 -4.2007,-13.141 1.7227,-2.575 4.8161,-1.5949 7.0435,-3.0529 2.6083,-0.79944 3.4877,-4.4637 2.6088,-7.6344 0.5894,-5.4053 7.2483,-7.0934 9.5297,-1.8529 0.6078,1.442 1.1103,2.9422 1.437,4.5086 z"
         fill="#ffffff"
         fill-rule="evenodd"
         stroke="#000000"
         stroke-width="3"
         id="path1249" />
      <path
         d="m 534.23,611.92 c -0.5953,-5.6617 1.3447,-12.396 6.9111,-14.902 2.6192,-1.4288 5.69,-2.4834 8.6862,-1.6232 3.2479,0.59962 4.5052,3.8725 4.8422,6.7646 1.4547,3.9776 7.1386,4.4879 9.9178,1.6371 1.526,-1.7657 4.7229,-2.4553 6.1193,-0.16983 1.8402,1.9898 0.2159,5.8323 3.6214,6.3057 3.7725,1.1212 8.42,-0.96578 11.57,2.0885 4.6097,2.7822 2.8804,10.491 -1.949,12.013 -2.9745,1.5148 -6.5753,1.5227 -9.5665,0.0282 -2.5711,-0.85808 -4.3544,-3.691 -7.2787,-3.3935 -4.2663,0.91581 -5.2699,6.8195 -9.7689,7.3182 -2.6973,0.0974 -3.348,-3.1293 -5.1135,-4.5017 -2.634,1.0423 -2.0101,5.3077 -4.0985,7.269 -1.5323,2.5482 -4.9677,4.3271 -7.7343,2.5618 -2.2863,-1.3916 -3.2234,-4.2198 -5.395,-5.8002 -1.9,-1.9314 -4.9181,-0.99345 -6.3659,0.99312 -4.3582,3.2311 -10.152,1.8909 -14.924,0.45687 -4.7313,-1.1318 -6.9723,-7.982 -3.183,-11.333 2.1933,-2.0874 5.5067,-1.0966 8.1338,-2.213 2.9749,-0.53949 4.3565,-3.5922 3.7375,-6.3196 1.2547,-4.5402 8.8106,-5.6192 10.751,-1.068 0.51185,1.2513 0.90055,2.5463 1.0874,3.888 z"
         fill="#ffffff"
         fill-rule="evenodd"
         stroke="#000000"
         stroke-width="3"
         id="path1251" />
      <path
         transform="matrix(0.97727,0.212,-0.22035,0.97542,0,0)"
         d="m 228.87,485.27 h 24.813 a 3.8135,2.1656 0 0 1 3.8135,2.1656 v 54.577 a 3.8135,2.1656 0 0 1 -3.8135,2.1656 H 228.87 a 3.8135,2.1656 0 0 1 -3.8135,-2.1656 v -54.577 A 3.8135,2.1656 0 0 1 228.87,485.27"
         id="path1253" />
      <path
         d="m 395.89,371.68 c -27.292,19.783 -39.451,9.7302 -48.246,21.52 -8.0283,3.7842 -14.343,-11.498 -5.5384,-18.595 4.9675,-4.0038 29.441,-10.391 35.062,-15.466"
         fill="#a7a7a7"
         stroke="#000000"
         stroke-width="2.5"
         id="path1255" />
      <g
         transform="matrix(0.87565,0,0,0.937,74.375,82.952)"
         id="g1267">
        <g
           transform="translate(-1.6605,7.2227)"
           id="g1261">
          <path
             d="m 415.23,538.07 c -17.796,-2.2821 -35.015,18.395 -38.435,46.154 -3.42,27.759 8.2459,52.14 26.042,54.422 17.7961,2.282 35.015,-18.395 38.435,-46.154 3.42,-27.759 -8.2459,-52.14 -26.042,-54.422 z m -0.99847,32.508 c 8.1715,1.0479 10.909,8.66 9.5784,19.455 -1.3306,10.795 -6.2268,20.706 -14.398,19.658 -8.1712,-1.048 -10.909,-8.16 -9.5784,-18.955 1.3306,-10.795 6.2268,-21.206 14.398,-20.158 z m 6.2674,-31.052 c -14.814,-7.7667 -28.62,-4.9135 -45.197,-0.91408 -25.335,19.997 -27.899,56.285 -15.231,84.781 12.501,12.145 23.34,16.412 41.505,15.205 -8.9096,-7.347 -12.511,-31.662 -18.767,-47.493 8.9142,-17.664 28.776,-33.914 37.69,-51.578 z"
             id="path1257" />
          <path
             transform="matrix(0.98975,0.1428,-0.1428,0.98975,87.204,-53.976)"
             d="m 428.12,594.24 a 16.25,26.875 0 1 1 -32.5,0 16.25,26.875 0 1 1 32.5,0 z"
             fill="#ffffff"
             id="path1259" />
        </g>
        <path
           transform="matrix(0.98539,0.17029,-0.17029,0.98539,98.082,-52.558)"
           d="m 417.19,591.2 a 4.6404,6.8501 0 1 1 -9.2808,0 4.6404,6.8501 0 1 1 9.2808,0 z"
           fill="#676767"
           id="path1263" />
        <path
           d="m 409.24,572.86 c 14.879,9.2808 8.5442,51.044 -12.153,49.056 2.2097,1.9887 3.9775,5.9662 11.711,5.3033 13.185,-0.88388 29.021,-50.16 0.44194,-54.359 z"
           fill="#676767"
           id="path1265" />
      </g>
      <g
         transform="matrix(0.87565,0,0,0.937,139.78,63.075)"
         id="g1279">
        <g
           transform="translate(-1.6605,7.2227)"
           id="g1273">
          <path
             d="m 414.23,541.3 c -17.511,-2.2091 -34.454,17.806 -37.82,44.676 -3.366,26.87 8.114,50.471 25.625,52.68 17.511,2.209 34.454,-17.806 37.82,-44.676 3.366,-26.87 -8.114,-50.471 -25.625,-52.68 z m -0.9825,31.467 c 8.0407,1.0144 10.734,8.3828 9.4252,18.832 -1.3088,10.4492 -6.1272,20.043 -14.168,19.028 -8.0408,-1.015 -10.734,-7.8988 -9.4252,-18.348 1.3088,-10.4492 6.1272,-20.527 14.168,-19.512 z m 6.1672,-30.058 c -14.577,-7.518 -28.162,-4.7562 -44.474,-0.88482 -24.93,19.357 -27.452,54.483 -14.988,82.067 12.301,11.756 22.966,15.887 40.841,14.718 -8.767,-7.1118 -12.311,-30.649 -18.466,-45.973 8.7715,-17.099 28.316,-32.829 37.087,-49.927 z"
             id="path1269" />
          <path
             transform="matrix(0.98975,0.1428,-0.1428,0.98975,87.204,-53.976)"
             d="m 428.12,594.24 a 16.25,26.875 0 1 1 -32.5,0 16.25,26.875 0 1 1 32.5,0 z"
             fill="#ffffff"
             id="path1271" />
        </g>
        <path
           transform="matrix(0.98539,0.17029,-0.17029,0.98539,98.082,-52.558)"
           d="m 417.19,591.2 a 4.6404,6.8501 0 1 1 -9.2808,0 4.6404,6.8501 0 1 1 9.2808,0 z"
           fill="#676767"
           id="path1275" />
        <path
           d="m 409.24,572.86 c 14.879,9.2808 8.5442,51.044 -12.153,49.056 2.2097,1.9887 3.9775,5.9662 11.711,5.3033 13.185,-0.88388 29.021,-50.16 0.44194,-54.359 z"
           fill="#676767"
           id="path1277" />
      </g>
      <path
         transform="matrix(0.9635,0.2677,-0.21413,0.97681,0,0)"
         d="m 225.26,476.32 h 15.75 a 3.8027,2.1558 0 0 1 3.8027,2.1558 v 49.166 a 3.8027,2.1558 0 0 1 -3.8027,2.1558 h -15.75 a 3.8027,2.1558 0 0 1 -3.8027,-2.1558 v -49.166 A 3.8027,2.1558 0 0 1 225.26,476.32"
         fill="#363636"
         id="path1281" />
      <path
         d="m 144.96,500.84 c -28.094,58.953 -38.862,119.42 -44.877,183.89 9.3736,13.511 99.959,47.335 151.77,41.479 44.39,-2.0224 106,-42.26 155.8,-56.705 -2.4547,-18.006 0.50838,-36.013 6.5674,-51.535 23.473,-17.108 29.918,-17.652 44.877,-14.055 5.0087,16.054 2.561,27.093 5.6185,47.632 5.108,-0.78083 4.1294,-3.2026 9.2374,-3.9835 -0.36485,-16.397 -3.811,-33.107 0.46795,-49.505 13.411,-15.108 28.37,-19.45 43.329,-10.541 2.7557,5.4367 7.106,21.856 5.4679,37.911 7.662,-3.1233 8.7682,-4.4898 10.685,-6.2873 12.516,-69.873 11.101,-133.12 -0.3756,-189.74 -39.094,-33.731 -89.798,-27.677 -133.54,-26.624 -64.524,9.535 -118.6,20.282 -173.06,54.041 -1.6418,3.0745 -5.4882,9.0373 -4.2568,12.405 l -77.714,31.624 z"
         fill="#c40000"
         stroke="#000000"
         stroke-width="3.75"
         id="path1283" />
      <path
         d="m 125.13,573.08 c 17.493,12.752 77.531,26.576 112.62,24.032 7.8574,-23.166 10.494,-48.166 11.237,-69.303 -33.125,-8.5288 -72.775,-16.735 -99.88,-15.117 -9.8228,13.456 -16.549,35.895 -23.982,60.388 z"
         fill="#d2dedf"
         stroke="#000000"
         stroke-width="3.75"
         id="path1285" />
      <path
         d="m 377.18,426.12 c -8.4903,-2.9588 -2.898,-12.371 21.776,-16.44 23.687,3.3978 11.904,12.143 4.9705,13.762 -17.017,3.1536 -19.625,2.6419 -26.746,2.6782 z"
         fill="#fba809"
         stroke="#000000"
         stroke-width="2.5"
         id="path1287" />
      <path
         d="m 365.48,394.16 c -18.229,-2.7168 -24.139,2.5427 -37.308,8.3948 -8.0283,3.7842 -18.28,-0.737 -7.7259,-14.845 7.1169,-9.5134 25.678,-18.225 31.299,-23.301"
         fill="#a7a7a7"
         stroke="#000000"
         stroke-width="2.5"
         id="path1289" />
      <path
         transform="matrix(0.95614,-0.2929,0.45215,0.89194,0,0)"
         d="m -18.23,500.45 h 263.28 a 3.8679,2.4113 0 0 1 3.8679,2.4113 v 1.6913 a 3.8679,2.4113 0 0 1 -3.8679,2.4113 H -18.23 a 3.8679,2.4113 0 0 1 -3.8679,-2.4113 v -1.6913 A 3.8679,2.4113 0 0 1 -18.23,500.45"
         fill="#ffc000"
         stroke="#000000"
         stroke-width="1.889"
         id="path1291" />
      <path
         d="m 350.78,362.73 c -14.99,-57.712 22.848,-60.396 43.395,-13.011 41.963,43.071 16.566,65.992 -0.29481,73.61 -13.652,5.4216 -29.61,6.6429 -41.12,0.40072 -19.587,-10.622 -8.6924,-41.217 -1.9799,-60.999 z"
         fill="#a7a7a7"
         fill-rule="evenodd"
         stroke="#000000"
         stroke-width="2.5625"
         id="path1293" />
      <path
         transform="matrix(-0.71739,0,0,0.55925,633,67.071)"
         d="m 401.28,601.14 a 25.633,35.721 0 1 1 -51.265,0 25.633,35.721 0 1 1 51.265,0 z"
         fill="#c4c4c4"
         fill-opacity="0.68826"
         id="path1295" />
      <path
         d="m 343.3,359.96 c -3.9142,3.6086 -5.5574,9.8395 -3.4149,11.764 4.9522,1.3967 34.156,-4.0355 31.915,-12.429 -1.5475,-5.7956 -9.4465,-4.1789 -12.325,-5.0646 -6.8907,-2.0134 -11.684,2.0803 -16.175,5.729 z"
         fill="#fba809"
         fill-rule="evenodd"
         stroke="#000000"
         stroke-width="1.625"
         id="path1297" />
      <path
         d="m 355.7,354.89 c -10.429,2.662 -17.079,11.232 -15.09,15.489 1.6069,-5.6134 9.6412,-13.272 25.463,-13.953 -5.7682,-0.68163 -6.8007,-0.78246 -10.373,-1.5358 z"
         fill="#ffffff"
         fill-opacity="0.4251"
         id="path1299" />
      <path
         d="m 353.15,328.96 c -9.2603,2.1868 -9.5532,28.46 -3.4584,28.81 13.519,1.9244 9.0416,-30.079 3.4584,-28.81 z"
         fill="#ffffff"
         fill-rule="evenodd"
         stroke="#000000"
         stroke-width="1.625"
         id="path1301" />
      <path
         d="m 358.77,329.19 c -8.5628,3.309 -7.7898,29.443 -2.0829,29.042 12.705,0.25185 7.2475,-30.988 2.0829,-29.042 z"
         fill="#ffffff"
         fill-rule="evenodd"
         stroke="#000000"
         stroke-width="1.625"
         id="path1303" />
      <path
         d="m 356.55378,352.20988 c -0.35811,0.0699 -0.58685,0.49039 -0.60745,1.02058 0.0552,-0.16001 0.1218,-0.6521 0.41944,-0.60035 0.56003,-0.0776 0.67797,0.34633 0.73727,0.6464 0.16978,0.65914 -0.29386,0.97085 -0.55007,1.02083 -0.20906,0.0408 -0.47462,-0.41338 -0.57666,-0.62476 0.003,0.0166 5.2e-4,0.0317 0.004,0.0483 0.14695,0.74365 0.64247,1.27378 1.10608,1.18333 0.46361,-0.0904 0.72059,-0.76739 0.57364,-1.51103 -0.14695,-0.74364 -0.64248,-1.27379 -1.10607,-1.18334 z"
         stroke="#000000"
         stroke-width="0.59993"
         id="path1305" />
      <path
         d="m 373.55,477.12 c 13.248,82.971 20.66,156.55 2.6781,200.57 12.061,-2.568 21.891,-4.7796 29.411,-9.0266 -1.6776,-7.1285 1.3565,-38.973 6.9657,-51.404 11.824,-9.5442 30.147,-21.743 47.986,-14.522 3.6821,11.081 4.5625,34.829 4.8813,46.997 4.7109,-2.1194 2.8801,-2.8 7.0614,-3.3777 -1.454,-15.572 -3.6343,-36.758 0.4408,-49.416 10.134,-11.139 27.162,-22.744 45.664,-9.9384 4.6652,8.8405 7.008,23.448 6.3496,35.564 7.1215,-3.8446 5.0587,-1.5058 8.1349,-5.1395 9.834,-57.423 4.6805,-123.14 -1.1942,-187.54 -26.637,5.928 -111.72,27.146 -158.38,47.229 z"
         fill="#570000"
         fill-opacity="0.40891"
         id="path1307" />
      <g
         transform="matrix(0.87565,0,0,0.937,-15.073,118.22)"
         id="g1319">
        <g
           transform="translate(-1.6605,7.2227)"
           id="g1313">
          <path
             d="m 414.23,541.3 c -17.511,-2.2091 -34.454,17.806 -37.82,44.676 -3.366,26.87 8.114,50.471 25.625,52.68 17.511,2.209 34.454,-17.806 37.82,-44.676 3.366,-26.87 -8.114,-50.471 -25.625,-52.68 z m -0.9825,31.467 c 8.0407,1.0144 10.734,8.3828 9.4252,18.832 -1.3088,10.4492 -6.1272,20.043 -14.168,19.028 -8.0408,-1.015 -10.734,-7.8988 -9.4252,-18.348 1.3088,-10.4492 6.1272,-20.527 14.168,-19.512 z m 6.1672,-30.058 c -14.577,-7.518 -28.162,-4.7562 -44.474,-0.88482 -24.93,19.357 -27.452,54.483 -14.988,82.067 12.301,11.756 22.966,15.887 40.841,14.718 -8.767,-7.1118 -12.311,-30.649 -18.466,-45.973 8.7715,-17.099 28.316,-32.829 37.087,-49.927 z"
             id="path1309" />
          <path
             transform="matrix(0.98975,0.1428,-0.1428,0.98975,87.204,-53.976)"
             d="m 428.12,594.24 a 16.25,26.875 0 1 1 -32.5,0 16.25,26.875 0 1 1 32.5,0 z"
             fill="#ffffff"
             id="path1311" />
        </g>
        <path
           transform="matrix(0.98539,0.17029,-0.17029,0.98539,98.082,-52.558)"
           d="m 417.19,591.2 a 4.6404,6.8501 0 1 1 -9.2808,0 4.6404,6.8501 0 1 1 9.2808,0 z"
           fill="#676767"
           id="path1315" />
        <path
           d="m 409.24,572.86 c 14.879,9.2808 8.5442,51.044 -12.153,49.056 2.2097,1.9887 3.9775,5.9662 11.711,5.3033 13.185,-0.88388 29.021,-50.16 0.44194,-54.359 z"
           fill="#676767"
           id="path1317" />
      </g>
      <path
         d="m 369.6,474.52 c 6.3284,43.355 23.389,147.89 8.5022,192.64"
         fill="none"
         stroke="#000000"
         stroke-width="3.75"
         id="path1321" />
      <path
         d="m 303.01,496.44 c 1.739,52.021 4.7281,96.541 6.4671,148.56 14.161,-6.1085 48.182,-12.598 62.343,-18.706 0.93672,-32.559 -1.1662,-103.1 -17.409,-144 -15.155,3.5469 -39.973,6.457 -51.401,14.142 z"
         fill="#c40000"
         stroke="#000000"
         stroke-width="3.75"
         id="path1323" />
      <path
         d="m 261,512.75 c -3.556,25.953 -10.559,91.73 -12.24,94.558 0.12965,3.7887 -10.795,98.435 -11.154,98.619 27.263,-8.583 57.176,-17.226 78.512,-36.231 -2.1731,-48.228 -0.19755,-120.98 -4.7413,-175.95 -17.582,6.9481 -32.794,12.057 -50.376,19.005 z"
         fill="#c40000"
         stroke="#000000"
         stroke-width="3.75"
         id="path1325" />
      <path
         d="m 87.715,648.04 c -7.6954,14.445 -4.782,31.932 2.228,46.791 44.141,21.657 104.96,34.061 166.12,42.466 27.58,-4.4955 41.228,-9.8192 57.199,-20.94 2.3219,-23.815 1.6968,-48.221 20.78,-70.103 4.2783,-5.5132 15.522,-7.2995 23.671,-7.8435 10.542,10.363 14.119,36.876 8.0214,58.006 8.0268,-3.5137 14.119,-7.0275 22.145,-10.541 -1.509,-25.49 -2.2441,-46.01 -8.397,-63.218 -9.8068,-9.873 -17.292,-13.121 -31.742,-13.469 -14.777,2.3425 -29.006,7.6131 -44.33,17.569 -7.2971,8.5892 -13.605,26.004 -17.071,43.963 -6.849,8.7786 -15.246,11.346 -29.448,12.256 -38.784,-1.2122 -97.692,-7.8076 -148.86,-32.209 -8.1984,-3.1233 -5.3678,-4.5902 -2.7307,-15.788 -1.6418,1.6593 -16.916,9.5386 -17.591,13.061 z"
         fill="#ffffff"
         stroke="#000000"
         stroke-width="3.75"
         id="path1327" />
      <path
         d="m 101.85,640.42 -1.5479,8.282 c 15.092,10.076 68.109,32.162 155.57,37.683 17.543,-1.9325 22.703,-5.9354 32.894,-14.079 0,-16.15 6.9657,-29.401 15.092,-42.652 11.481,-8.1439 34.571,-19.601 48.76,-18.634 9.8036,1.1733 28.931,11.323 21.816,10.611 -15.689,-1.5701 -43.423,2.0878 -52.388,15.477 -12.126,17.392 -14.189,25.674 -14.705,43.48 -14.447,6.9016 -26.186,15.46 -43.342,20.705 -61.144,-3.5888 -117.26,-15.874 -177.63,-41.824 2.0639,-10.49 7.6107,-16.012 15.479,-19.049 z"
         fill="#ebebeb"
         id="path1329" />
      <path
         d="m 226.5,455.17 c 39.587,0.39043 92.015,3.709 145.41,19.646 74.262,-26.935 128.76,-42.252 160.52,-44.242"
         fill="none"
         stroke="#000000"
         stroke-width="3.75"
         id="path1331" />
      <path
         d="m 483.18,471.32 c 33.865,36.843 31.046,-19.162 73.909,-18.304 4.6196,1.7703 1.8019,0.44456 5.9756,9.7604 -45.47,-0.48254 -39.589,60.443 -83.213,25.482"
         fill="#ffffff"
         fill-rule="evenodd"
         stroke="#000000"
         stroke-width="3.5"
         id="path1333" />
      <path
         d="m 551.43,451.07 c 4.813,5.1752 4.5842,13.482 4.226,15.241 5.4821,1.5448 10.054,-1.849 12.676,-0.45998 9.2705,11.87 20.708,6.0105 21.149,5.6929 6.5349,-8.1613 1.71,-26.255 -6.6361,-34.175 -1.8914,-0.0281 -16.858,-0.96733 -18.685,9.9288 -1.5926,2.8437 -8.8913,1.2609 -12.729,3.7717 z"
         fill="#dfe4ee"
         stroke="#000000"
         stroke-width="3.5"
         id="path1335" />
      <path
         d="m 519.42,486.35 c 33.865,36.843 31.046,-19.162 73.909,-18.304 4.6196,1.7703 1.8019,0.44456 5.9756,9.7604 -45.47,-0.48254 -39.589,60.443 -83.213,25.482"
         fill="#ffffff"
         fill-rule="evenodd"
         stroke="#000000"
         stroke-width="3.5"
         id="path1337" />
      <g
         transform="matrix(0.87216,0.083569,-0.078098,0.93326,186.46,127.18)"
         stroke="#000000"
         stroke-width="4.14"
         id="g1345">
        <path
           d="m 352.5,329.24 5.625,80.625 c 29.479,-7.3958 57.396,-18.542 81.875,-30.625 -8.9583,-23.125 -17.917,-46.25 -26.875,-69.375 z"
           fill="#890000"
           id="path1339" />
        <path
           d="m 352.5,328.61 c 14.479,24.479 29.583,51.771 40.625,78.125 25.417,-4.0625 49.896,-14.375 61.25,-24.375 -10.833,-27.083 -24.479,-53.229 -38.125,-73.75 -20.312,3.2292 -41.875,10.208 -63.75,20 z"
           fill="#c30000"
           id="path1341" />
        <path
           d="m 412.81,382.99 4.6875,9.375 18.125,-7.8125 -3.4375,-9.0625 z"
           fill="#ebebeb"
           id="path1343" />
      </g>
      <path
         d="m 440.98,499 c 14.978,18.657 45.313,15.133 66.237,5.6006 10.535,-4.7997 34.204,10.059 46.427,17.24 10.17,5.9754 18.735,0.44305 39.896,-7.1094 -0.4929,3.4129 6.4845,10.219 2.8661,12.35 -20.076,8.7414 -37.931,13.3 -47.769,6.5614 -9.838,-6.7386 -27.056,-21.998 -38.775,-16.746 -23.756,10.646 -51.84,9.7579 -71.799,-8.4296"
         fill="#ffffff"
         fill-rule="evenodd"
         stroke="#000000"
         stroke-width="3.5"
         id="path1347" />
      <path
         transform="matrix(0.87565,0,0,0.937,79.832,180.64)"
         d="m 352.5,329.24 5.625,80.625 c 29.479,-7.3958 57.396,-18.542 81.875,-30.625 -8.9583,-23.125 -17.917,-46.25 -26.875,-69.375 z"
         fill="#890000"
         stroke="#000000"
         stroke-width="4.14"
         id="path1349" />
      <path
         transform="matrix(0.87565,0,0,0.937,79.832,180.64)"
         d="m 352.5,328.61 c 14.479,24.479 29.583,51.771 40.625,78.125 25.417,-4.0625 49.896,-14.375 61.25,-24.375 -10.833,-27.083 -24.479,-53.229 -38.125,-73.75 -20.312,3.2292 -41.875,10.208 -63.75,20 z"
         fill="#c30000"
         stroke="#000000"
         stroke-width="4.14"
         id="path1351" />
      <path
         transform="matrix(0.87565,0,0,0.937,79.832,180.64)"
         d="m 412.81,382.99 4.6875,9.375 18.125,-7.8125 -3.4375,-9.0625 z"
         fill="#ebebeb"
         stroke="#000000"
         stroke-width="4.14"
         id="path1353" />
      <path
         d="m 144.81,500.04 c 32.647,-1.1808 77.334,5.2482 116,16.243 27.102,-15.084 60.435,-29.218 95.198,-32.634 -43.832,-9.4006 -87.875,-13.663 -132.26,-13.424"
         fill="#c40000"
         stroke="#000000"
         stroke-width="3.75"
         id="path1355" />
      <path
         transform="matrix(0.97877,0.20495,-0.14335,0.98967,0,0)"
         d="m 220.91,571.93 a 3.1799,7.2288 0 0 1 3.1799,7.2288 v 23.606 a 3.1799,7.2288 0 0 1 -3.1799,7.2288 3.1799,7.2288 0 0 1 -3.1799,-7.2288 v -23.606 A 3.1799,7.2288 0 0 1 220.91,571.93"
         fill="#ffffff"
         stroke="#000000"
         stroke-width="3.7537"
         id="path1357" />
      <path
         transform="matrix(0.97877,0.20495,-0.14335,0.98967,0,0)"
         d="m 236.29,573.87 a 3.1799,7.2288 0 0 1 3.1799,7.2288 v 23.606 a 3.1799,7.2288 0 0 1 -3.1799,7.2288 3.1799,7.2288 0 0 1 -3.1799,-7.2288 v -23.606 A 3.1799,7.2288 0 0 1 236.29,573.87"
         fill="#ffffff"
         stroke="#000000"
         stroke-width="3.7537"
         id="path1359" />
      <path
         transform="matrix(0.97877,0.20495,-0.14335,0.98967,0,0)"
         d="m 253.85,575.36 a 3.1799,7.2288 0 0 1 3.1799,7.2288 v 23.606 a 3.1799,7.2288 0 0 1 -3.1799,7.2288 3.1799,7.2288 0 0 1 -3.1799,-7.2288 v -23.606 A 3.1799,7.2288 0 0 1 253.85,575.36"
         fill="#ffffff"
         stroke="#000000"
         stroke-width="3.7537"
         id="path1361" />
      <path
         transform="matrix(0.979,0.20385,-0.1172,0.99311,0,0)"
         d="m 257.23,578.07 a 3.197,7.2251 0 0 1 3.197,7.2251 v 23.482 a 3.197,7.2251 0 0 1 -3.197,7.2251 3.197,7.2251 0 0 1 -3.197,-7.2251 v -23.482 a 3.197,7.2251 0 0 1 3.197,-7.2251"
         fill="#ffffff"
         stroke="#000000"
         stroke-width="3.7572"
         id="path1363" />
      <path
         transform="matrix(0.97945,0.20169,-0.064211,0.99794,0,0)"
         d="m 244.62,581.93 a 3.2313,7.1906 0 0 1 3.2313,7.1906 v 23.368 a 3.2313,7.1906 0 0 1 -3.2313,7.1906 3.2313,7.1906 0 0 1 -3.2313,-7.1906 v -23.368 A 3.2313,7.1906 0 0 1 244.62,581.93"
         fill="#ffffff"
         stroke="#000000"
         stroke-width="3.7682"
         id="path1365" />
      <path
         d="m 286.73,599.93 2.7541,9.2263 16.811,-5.2144 -1.7138,-8.7959 -17.851,4.7841 z"
         fill="#ebebeb"
         stroke="#000000"
         stroke-width="3.75"
         id="path1367" />
      <path
         d="m 337.04,579.84 2.7541,9.2263 16.811,-5.2144 -1.7138,-8.7959 -17.851,4.7841 z"
         fill="#ebebeb"
         stroke="#000000"
         stroke-width="3.75"
         id="path1369" />
      <path
         d="m 269.27,525.46 c -2.9167,22.083 -7.1592,46.376 -6.0984,68.902 14.375,-3.75 30.076,-7.9419 43.567,-14.344 2.0519,-25.518 -2.0833,-54.571 -3.5669,-68.598 -11.742,2.3231 -23.485,8.6236 -33.902,14.04 z"
         fill="#d2dedf"
         stroke="#000000"
         stroke-width="3.75"
         id="path1371" />
      <path
         d="m 320.81,506.97 1.25,64.375 34.375,-11.25 -9.375,-61.25 z"
         fill="#d2dedf"
         stroke="#000000"
         stroke-width="3.75"
         id="path1373" />
      <g
         transform="matrix(0.84692,0,0,1,-380.46,-75.572)"
         id="g1379">
        <path
           d="m 565.71,748.33 c -8.4218,15.397 23.813,19.856 33.046,22.441 -1.8262,1.6204 -2.1624,2.9284 -3.9885,4.5489 -8.2709,-1.705 -52.671,-8.0974 -29.057,-26.99 z"
           fill="#ebebeb"
           id="path1375" />
        <path
           transform="matrix(-0.95439,-0.29855,-0.069254,0.9976,0,0)"
           d="m -664.21,561.78 h 31.81 a 4.655,2.4167 0 0 1 4.655,2.4167 v 12.984 a 4.655,2.4167 0 0 1 -4.655,2.4167 h -31.81 a 4.655,2.4167 0 0 1 -4.655,-2.4167 v -12.984 a 4.655,2.4167 0 0 1 4.655,-2.4167"
           fill="none"
           stroke="#000000"
           stroke-width="4.1314"
           id="path1377" />
      </g>
      <g
         transform="matrix(1.0356,-0.09901,0.097155,1.0554,-478.3,-36.14)"
         id="g1385">
        <path
           d="m 565.71,748.33 c -8.4218,15.397 23.813,19.856 33.046,22.441 -1.8262,1.6204 -2.1624,2.9284 -3.9885,4.5489 -8.2709,-1.705 -52.671,-8.0974 -29.057,-26.99 z"
           fill="#ebebeb"
           id="path1381" />
        <path
           transform="matrix(-0.95439,-0.29855,-0.069254,0.9976,0,0)"
           d="m -664.96,560.91 h 33.361 a 3.8482,3.4682 0 0 1 3.8482,3.4682 v 11.748 a 3.8482,3.4682 0 0 1 -3.8482,3.4682 h -33.361 a 3.8482,3.4682 0 0 1 -3.8482,-3.4682 v -11.748 a 3.8482,3.4682 0 0 1 3.8482,-3.4682"
           fill="none"
           stroke="#000000"
           stroke-width="3.6209"
           id="path1383" />
      </g>
      <path
         d="m 404.38,586.56 c 57.747,-28.874 95.607,-36.534 151.59,-38.007 -0.5892,8.2496 -4.2721,18.267 -4.8614,26.516 -54.801,-6.7764 -84.853,5.8926 -140.54,34.471 -0.58925,-7.0711 -5.5979,-15.91 -6.1872,-22.981 z"
         fill="#bbbbbb"
         stroke="#000000"
         stroke-width="3.75"
         id="path1387" />
      <path
         d="m 308.61,426.05 c -6.7269,1.4849 -24.038,7.8051 -25.436,14.73 19.914,6.0442 48.081,3.9287 63.999,0 -5.1807,-7.1923 -13.692,-12.571 -22.536,-15.23 -6.6744,-2.15 -8.0204,-2.1846 -16.027,0.50072 z"
         fill="#cdcdcd"
         stroke="#000000"
         stroke-width="3.125"
         id="path1389" />
      <path
         d="m 309.5,414.28 1.4129,12.822 c 3.7678,2.1369 7.5355,1.7096 11.303,0 l -0.94194,-16.241 -11.774,3.4191 z"
         fill="#cdcdcd"
         stroke="#000000"
         stroke-width="3.75"
         id="path1391" />
      <path
         d="m 302.43,397.61 0.47097,20.087 c 9.4194,5.6985 20.723,3.2766 26.845,-3.4191 l -1.8839,-18.805 -25.432,2.1369 z"
         fill="#cdcdcd"
         stroke="#000000"
         stroke-width="3.125"
         id="path1393" />
      <path
         transform="matrix(0.74841,0,0,0.6927,-344.37,134.56)"
         d="m 797.26,381.49 a 19.0035,35.35593 0 1 1 -38.007,0 19.0035,35.35593 0 1 1 38.007,0 z"
         fill="#cdcdcd"
         stroke="#000000"
         stroke-width="3.8194"
         id="path1395" />
      <g
         transform="translate(-170.48,276.18)"
         id="g1417">
        <path
           d="M 430.2,580.49 Z"
           fill="#3b3b3b"
           id="path1397" />
        <path
           d="m 574.19,83.267 c 4.9343,-0.0021 5.1081,2.9425 16.148,-6.7916 11.733,-0.44402 6.7256,-8.2755 16.691,-7.6856 -6.6171,-7.8034 -23.071,7.6189 -45.5,-9.8509 -4.4943,-0.19665 -6.0197,1.3254 -10.514,1.1288 7.6207,7.4727 15.554,15.727 23.175,23.199 z"
           fill="#474747"
           stroke="#000000"
           stroke-width="2.5"
           id="path1399" />
        <g
           transform="matrix(0.84008,0,0,0.87004,-299.62,-51.691)"
           id="g1407">
          <path
             d="m 970.25,131.54 c -0.0964,-13.396 4.332,-24.14 12.51,-25.631 -0.008,-4.0368 0.37796,-7.6764 2.0967,-10.746 37.408,-3.6692 11.9,30.917 57.973,32.334 -24.904,-0.5725 -60.636,2.1937 -72.58,4.0425 z"
             fill="#c3e3ed"
             stroke="#000000"
             stroke-width="2.9242"
             id="path1401" />
          <path
             d="m 1050.4,129.17 c -18.913,-0.47808 -73.204,5.4899 -89.024,10.661 -2.0924,1.074 -7.1707,-3.082 -0.42691,-7.9248 16.875,-5.9041 67.78501,-11.485 85.58001,-8.718 3.9498,0.1508 10.364,3.6778 3.8711,5.9823 z"
             fill="#c3e3ed"
             stroke="#000000"
             stroke-width="2.9242"
             id="path1403" />
          <path
             d="m 980.74,126.67 c -3.4842,0.94604 -5.3971,1.7194 -8.1255,2.3976 0.0341,-2.0308 2.531,-18.339 10.202,-22.723 4.2571,-0.81452 6.9569,-3.0916 22.441,0.43481 -14.421,-1.9359 -15.76,-2.1302 -22.031,0.33413 -5.1432,4.6608 -2.7953,17.244 -2.4858,19.557 z"
             id="path1405" />
        </g>
        <g
           transform="matrix(0.89862,0,0,0.81,-370.01,-41.911)"
           id="g1415">
          <path
             d="m 1061.7,169.73 c 5.3488,2.5505 6.7091,17.202 2.0197,23.883 -18.207,21.297 -62.524,28.34 -81.124,17.862 -6.889,-3.9953 -10.083,-12.924 -4.1774,-18.277 19.253,9.1839 65.955,3.9957 83.281,-23.468 z"
             fill="#4d4d4d"
             stroke="#000000"
             stroke-width="2.9303"
             id="path1409" />
          <path
             d="m 986.22,194.27 c -3.1537,2.5441 -0.60144,15.455 3.3384,19.467 5.0553,5.1481 17.946,7.2657 21.68,4.2532 3.5917,-2.8974 1.6885,-20.069 -1.2757,-22.61 -6.2277,-2.441 -18.587,-3.0134 -23.743,-1.1103 z"
             fill="#7dacb9"
             stroke="#000000"
             stroke-width="2.9303"
             id="path1411" />
          <path
             d="m 986.13,196.7 c -1.9125,2.0212 0.87734,11.098 3.3683,15.765 4.5347,2.9002 14.196,5.3007 18.045,4.3904 1.2593,-4.5178 0.952,-15.374 -1.6967,-17.374 -5.0983,-2.0311 -14.516,-3.6126 -19.717,-2.7815 z"
             fill="#c3e3ed"
             id="path1413" />
        </g>
      </g>
      <path
         d="m 271.98,383.15 c 13.58,0.21369 19.804,-12.847 37.139,-16.103 12.004,-2.2549 19.058,14.111 28.634,15.179 8.7915,0.14246 12.402,7.9779 13.187,12.394 -17.74,6.1259 -51.964,13.534 -77.71,16.241 0.15698,-7.1231 -1.407,-20.588 -1.25,-27.711 z"
         fill="#d2dedf"
         stroke="#000000"
         stroke-width="3.125"
         id="path1419" />
      <path
         d="m 308.9,354.15 -0.99907,15.519 c 2.5532,2.9238 5.4394,2.474 8.6587,0.67472 l 0.33303,-16.868 -7.9926,0.67473 z"
         fill="#ffffff"
         stroke="#000000"
         stroke-width="3"
         id="path1421" />
      <path
         d="m 320.16,355.36 c 4.7843,-1.2298 4.8412,-5.692 4.1148,-7.8214 -3.3553,-6.9288 -15.001,-8.3167 -18.707,-8.0044 -9.6358,-2.2931 -16.071,-3.3594 -25.707,-2.5589 -6.6857,1.2754 -2.5572,5.6208 -0.5299,8.0541 7.3667,1.3678 12.386,1.4729 19.888,3.5173 3.2226,4.9216 12.954,9.2637 20.941,6.8134 z"
         fill="#cd1818"
         stroke="#000000"
         stroke-width="2.75"
         id="path1423" />
      <path
         d="m 236.31,374.43 c 18.172,-1.6994 32.105,-2.9715 44.626,1.3125 11.667,9.5729 10.617,25.984 5.3284,33.847 -10.387,7.4241 -30.665,12.284 -45.292,13.297"
         fill="#cdcdcd"
         stroke="#000000"
         stroke-width="3.125"
         id="path1425" />
      <path
         transform="matrix(0.75355,0,0,0.68382,-352.92,136.47)"
         d="m 788.42,385.03 a 7.0711,19.445 0 1 1 -14.142,0 7.0711,19.445 0 1 1 14.142,0 z"
         fill="#1b1b1b"
         id="path1427" />
      <path
         d="m 339.64,385.22 18.839,-2.1369 c 11.303,1.2822 15.107,2.8768 26.41,4.159 -5.9405,1.4292 -3.4434,3.4834 -4.0714,6.4751 -10.675,-1.7096 -11.663,-1.2316 -22.339,-2.9412 l -17.897,0.85478 c -2.4334,-1.9232 -2.7473,-3.4191 -0.94194,-6.4108 z"
         fill="#d2dedf"
         stroke="#000000"
         stroke-width="2.375"
         id="path1429" />
      <path
         d="m 390.94,365.41 c -12.649,18.202 -22.188,13.69 -25.239,29.811 3.3483,3.2936 32.547,-3.8651 38.35,-13.833"
         fill="#a7a7a7"
         stroke="#000000"
         stroke-width="2.5"
         id="path1431" />
      <path
         d="m 350.44946,352.29274 c -0.35811,0.0699 -0.58685,0.49039 -0.60745,1.02058 0.0552,-0.16001 0.1218,-0.6521 0.41944,-0.60035 0.56003,-0.0776 0.67797,0.34633 0.73727,0.6464 0.16978,0.65914 -0.29386,0.97085 -0.55007,1.02083 -0.20906,0.0408 -0.47462,-0.41338 -0.57666,-0.62476 0.003,0.0166 5.2e-4,0.0317 0.004,0.0483 0.14695,0.74365 0.64247,1.27378 1.10608,1.18333 0.46361,-0.0904 0.72059,-0.76739 0.57364,-1.51103 -0.14695,-0.74364 -0.64248,-1.27379 -1.10607,-1.18334 z"
         stroke="#000000"
         stroke-width="0.59993"
         id="path1433" />
      <g
         transform="translate(-466.69,-76.014)"
         stroke="#000000"
         id="g1441">
        <path
           transform="matrix(0.95698,-0.29016,0.82722,0.56188,0,0)"
           d="m 34.175,957.39 h 183.68 a 4.0222,2.5587 0 0 1 4.0222,2.5587 4.0222,2.5587 0 0 1 -4.0222,2.5587 H 34.175 a 4.0222,2.5587 0 0 1 -4.0222,-2.5587 4.0222,2.5587 0 0 1 4.0222,-2.5587"
           stroke-width="2.9766"
           id="path1435" />
        <path
           d="m 864.29,518.44 a 2.5994,4.1352 0 0 1 2.5994,4.1352 v 9.5167 a 2.5994,4.1352 0 0 1 -2.5994,4.1352 2.5994,4.1352 0 0 1 -2.5994,-4.1352 v -9.5167 A 2.5994,4.1352 0 0 1 864.29,518.44"
           stroke-width="2.625"
           id="path1437" />
        <path
           d="m 966.82,486.7 a 2.515,4.1352 0 0 1 2.515,4.1352 v 11.564 a 2.515,4.1352 0 0 1 -2.515,4.1352 2.515,4.1352 0 0 1 -2.515,-4.1352 v -11.564 A 2.515,4.1352 0 0 1 966.82,486.7"
           stroke-width="2.625"
           id="path1439" />
      </g>
      <g
         transform="matrix(0.99629,0.086029,-0.086029,0.99629,-413.44,-134.86)"
         id="g1447">
        <path
           d="m 706.25,575.49 c 7.3989,6.97 21.869,6.8689 34.571,2.7903 0.41053,-13.302 -0.12024,-39.47 -15.196,-40.29 -16.042,-0.87775 -17.311,25.865 -19.375,37.5 z"
           fill="#b4c8ef"
           stroke="#000000"
           stroke-width="2.625"
           id="path1443" />
        <path
           d="m 726.76,539.92 c -14.767,-0.68549 -16.8,25.193 -18.009,34.634 2.8566,1.5686 4.4945,3.166 6.7889,2.1875 -3.4429,-5.4136 1.6551,-31.229 11.22,-36.821 z"
           fill="#efefef"
           fill-opacity="0.54656"
           id="path1445" />
      </g>
      <g
         transform="matrix(0.99442,-0.10548,0.10548,0.99442,-599.23,-4.7462)"
         id="g1453">
        <path
           d="m 706.25,575.49 c 7.3989,6.97 21.869,6.8689 34.571,2.7903 0.41053,-13.302 -0.12024,-39.47 -15.196,-40.29 -16.042,-0.87775 -17.311,25.865 -19.375,37.5 z"
           fill="#b4c8ef"
           stroke="#000000"
           stroke-width="2.625"
           id="path1449" />
        <path
           d="m 726.76,539.92 c -14.767,-0.68549 -16.8,25.193 -18.009,34.634 2.8566,1.5686 4.4945,3.166 6.7889,2.1875 -3.4429,-5.4136 1.6551,-31.229 11.22,-36.821 z"
           fill="#efefef"
           fill-opacity="0.54656"
           id="path1451" />
      </g>
      <path
         d="m 211.59,447.67 c 3.1771,2.8646 3.6979,4.4792 4.6875,10.781 -22.917,6.6667 -42.552,16.302 -68.75,20 11.198,-8.2292 23.021,-13.958 35,-18.125 -6.9792,-7.3958 1.1979,-17.292 20.781,-23.906 -5.7812,10.312 -19.375,15 -12.031,20 8.8021,-4.0625 12.135,-5.1562 20.312,-8.75 z"
         fill="#ebd559"
         stroke="#000000"
         stroke-width="2.625"
         id="path1455" />
      <path
         transform="matrix(0.9744,0.22483,-0.11342,0.99355,0,0)"
         d="m 327.64,476.27 h 25.468 a 3.811,2.1683 0 0 1 3.811,2.1683 v 58.225 a 3.811,2.1683 0 0 1 -3.811,2.1683 H 327.64 a 3.811,2.1683 0 0 1 -3.811,-2.1683 v -58.225 a 3.811,2.1683 0 0 1 3.811,-2.1683"
         id="path1457" />
      <path
         transform="matrix(0.96264,0.27077,-0.09324,0.99564,0,0)"
         d="m 320.56,467.65 h 17.257 a 3.8048,2.1678 0 0 1 3.8048,2.1678 v 52.165 a 3.8048,2.1678 0 0 1 -3.8048,2.1678 H 320.56 a 3.8048,2.1678 0 0 1 -3.8048,-2.1678 v -52.165 A 3.8048,2.1678 0 0 1 320.56,467.65"
         fill="#363636"
         id="path1459" />
      <path
         d="m 637.52,596.69 c -4.7776,-3.4154 1.8079,-13.883 5.2092,-7.1926 2.3453,5.0832 8.5374,-2.5493 10.459,3.5923 2.1948,5.095 -3.8235,5.0971 -6.924,5.6814 -0.4618,2.1928 3.0085,5.9175 -1.3355,7.0629 -3.647,0.37381 -6.2211,-2.9838 -9.9016,0.0165 -5.5775,3.1532 -8.7201,-5.7888 -4.5866,-8.9243 2.1625,-1.7285 4.6769,0.13025 7.0797,-0.23626 z"
         fill="#ffffff"
         fill-rule="evenodd"
         stroke="#000000"
         stroke-width="2.5"
         id="path1461" />
      <path
         d="m 352.77,370.62 c 10.679,-4.918 11.735,-7.4108 16.238,-10.777"
         fill="none"
         stroke="#000000"
         id="path1463" />
      <path
         d="m 394.76,578.4 c 11.004,-3.1093 20.903,-3.7879 31.906,-2.4778 4.8644,5.6533 8.403,15.505 7.3012,22.042 -7.3074,10.83 -16.383,20.114 -26.342,24.094 -4.5833,-14.479 -8.2828,-29.179 -12.866,-43.658 z"
         fill="#bbbbbb"
         stroke="#000000"
         stroke-width="3.125"
         id="path1465" />
      <path
         transform="matrix(1.0456,0,0.096754,1.0509,-564.84,-114.78)"
         d="m 874.16,681.35 a 15.247,22.318 0 1 1 -30.494,0 15.247,22.318 0 1 1 30.494,0 z"
         fill="#bbbbbb"
         stroke="#000000"
         stroke-width="2.9811"
         id="path1467" />
      <path
         transform="matrix(0.52122,0,0.087834,0.6915,-110.23,130.98)"
         d="m 874.16,681.35 a 15.247,22.318 0 1 1 -30.494,0 15.247,22.318 0 1 1 30.494,0 z"
         fill="#3e3e3e"
         id="path1469" />
      <path
         d="m 572.29,542.11 c -13.765,-1.3375 -21.806,2.1293 -30.742,7.3754 2.6171,6.7481 3.5468,16.286 -4.9983,22.676 8.3812,10.022 22.112,12.387 32.427,15.323 9.9467,-12.061 12.429,-30.188 3.3133,-45.374 z"
         fill="#bbbbbb"
         stroke="#000000"
         stroke-width="3.125"
         id="path1471" />
      <path
         d="m 463.42,576.39 h 1.237 a 3.8009,2.1703 0 0 1 3.8009,2.1703 v 12.453 a 3.8009,2.1703 0 0 1 -3.8009,2.1703 h -1.237 a 3.8009,2.1703 0 0 1 -3.8009,-2.1703 v -12.453 A 3.8009,2.1703 0 0 1 463.42,576.39"
         id="path1473" />
      <path
         d="m 523.52,565.78 h 1.237 a 3.8009,2.1703 0 0 1 3.8009,2.1703 v 12.453 a 3.8009,2.1703 0 0 1 -3.8009,2.1703 h -1.237 a 3.8009,2.1703 0 0 1 -3.8009,-2.1703 v -12.453 A 3.8009,2.1703 0 0 1 523.52,565.78"
         id="path1475" />
      <path
         d="m 585.74,466.09 c 5.6029,4.3076 6.7516,12.538 6.6894,14.332 5.6622,0.61652 9.6095,-3.487 12.425,-2.5508 11.107,10.173 21.417,2.5016 21.799,2.1155 5.0946,-9.13 -2.6574,-26.176 -12.199,-32.606 -1.87,0.28518 -16.786,1.8352 -16.785,12.883 -1.1002,3.068 -8.5602,2.7145 -11.93,5.8257 z"
         fill="#dfe4ee"
         stroke="#000000"
         stroke-width="3.5"
         id="path1477" />
      <path
         d="m 585.51,518.42 c 7.0615,1.7249 11.605,9.1715 12.302,10.931 5.562,-1.864 7.5297,-7.54 10.56,-7.8589 14.687,4.9969 21.11,-6.8871 21.305,-7.4257 0.9244,-11.027 -13.517,-24.116 -25.16,-26.179 -1.631,1.0875 -14.946,9.0623 -10.29,19.728 0.2623,3.4396 -6.8725,6.3385 -8.7172,10.806 z"
         fill="#dfe4ee"
         stroke="#000000"
         stroke-width="3.5"
         id="path1479" />
      <path
         d="m 240.68,499.25 c 6.7718,7.5806 21.197,8.7248 34.203,5.7541 1.5534,-13.217 3.2758,-39.334 -11.674,-41.448 -15.907,-2.2546 -19.472,24.28 -22.529,35.694 z"
         fill="#b4c8ef"
         stroke="#000000"
         stroke-width="2.625"
         id="path1481" />
      <path
         d="m 264.17,465.57 c -14.653,-1.9533 -18.905,23.654 -20.921,32.956 2.711,1.8086 4.2055,3.5409 6.5755,2.7634 -2.9644,-5.6897 4.3356,-30.97 14.346,-35.72 z"
         fill="#efefef"
         fill-opacity="0.54656"
         id="path1483" />
      <path
         d="m 244.29,375.86 c -16.642,-3.3896 -28.185,24.98 -10.646,44.447 2.711,1.8086 2.7692,0.77877 5.3602,0.66421 -18.543,-22.373 -6.6025,-42.903 5.286,-45.111 z"
         fill="#efefef"
         fill-opacity="0.79757"
         id="path1485" />
      <path
         d="m 301.44,345.85 c 11.875,5.9635 21.915,5.6235 19.103,-0.67862 11.224,7.0573 -9.1927,17.161 -20.703,2.2656 -0.0911,-0.13021 -18.593,-2.8532 -19.916,-3.8625 -1.323,-1.0093 7.6361,-1.6047 21.516,2.2755 z"
         fill="#8f1010"
         id="path1487" />
      <path
         d="m 165.08,515.14 c 17.257,0.9099 5.4605,0.17985 13.683,1.2936 -6.8897,13.229 -22.129,59.228 -19.639,68.606 -13.738,-4.1741 -5.073,-1.5398 -16.606,-5.1084 2.7193,-19.334 13.575,-48.292 22.561,-64.792 z"
         fill="#ffffff"
         fill-opacity="0.40891"
         id="path1489" />
    </g>
    <text
       xml:space="preserve"
       id="text1879-9"
       style="font-style:normal;font-weight:normal;font-size:25.4px;line-height:1.25;font-family:sans-serif;white-space:pre;shape-inside:url(#rect1881-6);fill:#ffffff;fill-opacity:1;stroke:none;"
       x="135.68164"
       y="0"
       transform="matrix(1.3976195,-0.35466813,0.62448769,1.6057668,-90.856463,-187.66846)"
       inkscape:export-xdpi="96"
       inkscape:export-ydpi="96"><tspan
         x="121.32871"
         y="255.30703"><tspan
           style="font-style:normal;font-variant:normal;font-weight:bold;font-stretch:normal;font-family:'Comic Sans MS';-inkscape-font-specification:'Comic Sans MS';text-align:center;text-anchor:middle;fill:#ffffff">O CAMINHOZINHO
</tspan></tspan><tspan
         x="88.66094"
         y="287.46081"><tspan
           style="font-style:normal;font-variant:normal;font-weight:bold;font-stretch:normal;font-family:'Comic Sans MS';-inkscape-font-specification:'Comic Sans MS';text-align:center;text-anchor:middle;fill:#ffffff">                       VELOZ</tspan></tspan></text>
    <path
       id="path18-6"
       fill="#010101"
       d="m 866.32263,308.29287 c -3.201,-0.74788 -6.4671,-3.1917 -7.2289,-5.40884 -2.072,-6.03099 2.794,-10.93361 10.8827,-10.96427 2.6253,-0.01 3.656,0.17001 5.4735,0.95587 2.9653,1.28222 4.2851,2.36823 5.2078,4.28491 3.296,6.84677 -5.0242,13.3078 -14.3351,11.13241 z m -141.33,-0.32755 c -2.1363,-0.55805 -4.99179,-2.39758 -6.0755,-3.91356 -0.8278,-1.15811 -0.93119,-4.9081 -0.1759,-6.3768 0.728,-1.41519 3.3621,-3.37752 5.3879,-4.01385 1.9462,-0.61122 6.1731,-0.69651 8.08581,-0.16309 1.96729,0.54853 4.96649,2.61881 5.72729,3.95337 0.8631,1.5141 0.8641,4.90189 0,6.41136 -0.911,1.59482 -4.3174,3.77576 -6.63389,4.2473 -2.47961,0.50464 -3.9615,0.47065 -6.31741,-0.14482 z m 73.2699,-0.0351 c -6.0885,-1.37402 -8.8277,-7.46795 -5.1754,-11.51312 1.5447,-1.71086 3.1154,-2.49094 6.1935,-3.07623 6.2382,-1.18599 12.3725,1.78392 12.8761,6.23417 0.3411,3.01549 -0.2214,4.42743 -2.4791,6.22284 -1.4445,1.14865 -2.7407,1.76435 -4.5376,2.1555 -3.0185,0.65696 -3.8765,0.65411 -6.8772,-0.0228 z m -90.4666,-8.50439 c -0.31819,-0.43591 -0.5284,-3.40941 -0.5284,-7.47709 v -6.75341 l 4.2295,-8.80936 c 2.3262,-4.84499 4.2295,-9.17652 4.2295,-9.62548 0,-0.44887 -0.4585,-1.12051 -1.0189,-1.49225 -0.77099,-0.51133 -0.9829,-1.03547 -0.8708,-2.15354 l 0.14821,-1.47765 49.26119,-0.0951 c 36.2921,-0.0701 49.6275,0.0155 50.6545,0.32485 0.7655,0.23101 1.7043,0.86285 2.0861,1.40403 0.3819,0.54118 2.1626,4.79028 3.9572,9.44275 l 3.263,8.45882 v 8.02959 c 0,8.85599 -0.2376,9.7119 -2.9227,10.52697 -2.3648,0.71795 -3.08,0.39653 -4.0156,-1.80438 -1.3045,-3.06922 -2.2596,-4.16487 -5.05,-5.79322 -3.0057,-1.75406 -5.5182,-2.36479 -9.7184,-2.36235 -3.5025,0 -7.2822,1.16553 -10.0751,3.10135 -1.7825,1.2354 -3.8326,4.0941 -4.3439,6.05723 l -0.3086,1.18527 h -21.6053 c -16.8623,0 -21.64259,-0.10006 -21.77499,-0.45589 -1.6144,-4.34353 -1.97561,-4.88764 -4.38231,-6.60135 -3.3558,-2.38975 -6.2015,-3.26997 -10.5937,-3.2769 -4.0141,-0.008 -6.35719,0.61365 -9.5372,2.52372 -2.5993,1.56098 -4.5491,3.8953 -5.04609,6.04044 l -0.36761,1.58764 -2.5699,0.10944 c -2.1439,0.0912 -2.65739,-0.0114 -3.0983,-0.61424 z m 28.3954,-17.78521 c 0.5035,-0.44399 0.7269,-2.22937 0.8503,-6.7955 0.092,-3.40614 0.027,-6.74029 -0.1439,-7.40956 -0.5668,-2.21494 -1.0363,-2.3339 -9.2093,-2.3339 -6.298,0 -7.5236,0.093 -8.4033,0.6382 -1.0224,0.6334 -7.539,13.17946 -7.539,14.51426 0,0.36 0.3706,0.95458 0.8236,1.32143 0.7506,0.60796 1.80061,0.66691 11.8814,0.66691 9.6716,0 11.14351,-0.0758 11.7406,-0.60225 z m 25.3989,0 c 1.345,-0.89213 1.1602,-1.91593 -1.6076,-8.90411 -1.7163,-4.33341 -2.84239,-6.55984 -3.5382,-6.99493 -0.8608,-0.53825 -2.0559,-0.63821 -7.628,-0.63821 -9.50999,0 -8.95659,-0.54036 -8.95659,8.75056 0,6.86032 0.065,7.39024 0.96579,7.87312 0.7537,0.40378 3.04111,0.51745 10.4101,0.51745 8.0898,0 9.5746,-0.0866 10.3543,-0.60364 z m 27.1828,0.16593 c 0.3284,-0.24071 0.5971,-0.98581 0.5971,-1.65582 0,-1.86171 -4.8789,-14.06277 -5.8347,-14.59164 -0.5896,-0.32607 -3.4175,-0.45589 -9.9344,-0.45589 -8.447,0 -9.1825,0.053 -10.1055,0.72946 -0.5474,0.40117 -0.9952,0.89122 -0.9952,1.08912 0,0.87206 5.1366,13.76336 5.7785,14.50186 0.6992,0.80455 0.9009,0.82053 10.3051,0.82053 6.797,0 9.7661,-0.12745 10.1891,-0.43762 z m 25.1924,-0.13552 c 1.2185,-0.8931 0.9369,-2.42335 -1.6704,-9.07664 -1.7812,-4.54558 -2.7154,-6.35811 -3.524,-6.83806 -0.9657,-0.57314 -2.1888,-0.65296 -10.0015,-0.65296 -8.2381,0 -8.9755,0.0546 -9.8965,0.72937 -0.54739,0.40117 -0.9952,1.02813 -0.9952,1.39326 0,1.04754 4.9774,13.28603 5.7745,14.19772 0.7022,0.80357 0.913,0.82061 10.1244,0.82061 7.8888,0 9.5333,-0.0925 10.1891,-0.57305 z m 11.2311,17.54345 c 0,-0.43216 1.0667,-0.55496 5.5446,-0.63821 5.7496,-0.10698 5.8795,-0.14319 6.599,-1.8441 0.2503,-0.59181 1.0047,-0.63837 8.8665,-0.54705 l 8.5934,0.0998 -0.1713,1.45882 c -0.094,0.80235 -0.2749,1.58186 -0.4012,1.7323 -0.1264,0.15044 -6.71,0.27349 -14.6306,0.27349 -12.3263,0 -14.4007,-0.0775 -14.4007,-0.53506 z m 60.3175,-1.01484 c -0.2442,-0.8525 -0.3563,-1.67312 -0.2486,-1.82355 0.2313,-0.3233 16.2537,-0.37468 16.6921,-0.0538 0.1655,0.12108 -0.1787,0.94162 -0.7626,1.82355 l -1.0629,1.60339 h -14.1734 l -0.4444,-1.54999 z m -48.1669,-5.50293 c -0.1407,-0.26868 -0.1897,-5.1237 -0.1089,-10.78889 l 0.147,-10.30054 1.6251,-1.06369 1.625,-1.06368 h 29.1258 c 32.5861,0 31.5581,-0.0775 32.5646,2.4638 0.3481,0.87858 0.4881,4.87711 0.3923,11.21232 l -0.1485,9.84686 -9.785,0.0988 -9.7851,0.0987 -2.3199,-1.47162 c -2.9159,-1.84964 -4.2609,-2.35314 -7.8411,-2.93542 -4.8091,-0.78212 -10.3358,0.45442 -13.7811,3.0835 l -1.7148,1.30838 h -9.8697 c -7.7882,0 -9.9239,-0.10315 -10.1254,-0.4885 z"
       style="fill:#800000;stroke-width:0.425992"
       inkscape:export-xdpi="96"
       inkscape:export-ydpi="96" />
    <path
       id="path14-6"
       fill="#010101"
       d="m 389.58996,72.423687 c -2.4188,-0.47138 -6.2683,-2.98198 -7.4191,-4.8388 -1.842,-2.97219 -0.818,-7.60868 2.2061,-9.98841 4.3061,-3.38837 12.9964,-3.48972 17.4345,-0.20319 4.7997,3.5543 4.8624,9.24004 0.1402,12.70139 -3.3006,2.41903 -7.6727,3.24282 -12.3621,2.32893 z m 52.5353,-0.085 c -4.2616,-0.97717 -7.6107,-3.9333 -8.3809,-7.39832 -0.7851,-3.52927 2.8515,-8.136 7.4349,-9.41902 3.4871,-0.97603 8.5925,-0.63038 11.3017,0.76525 1.1674,0.60127 2.7935,1.79321 3.614,2.64872 1.8991,1.98043 2.3755,5.72798 1.0514,8.26957 -2.242,4.30234 -8.8292,6.55364 -15.0214,5.13388 z m -25.3605,-6.05186 c -5.5906,-0.43216 -7.6969,-1.5397 -8.9324,-4.6965 -1.1362,-2.90386 -2.8838,-4.92751 -5.5375,-6.41291 -2.3343,-1.30634 -6.2215,-2.3772 -8.6287,-2.3772 -1.6202,0 -2.4777,-1.18012 -2.4777,-3.41022 0,-1.98622 1.869,-3.39449 6.5822,-4.95988 3.7732,-1.25326 4.6315,-1.3494 5.0425,-0.56491 0.1577,0.30088 0.4793,0.54705 0.715,0.54705 0.2356,0 3.8633,-1.88731 8.0619,-4.19406 10.2761,-5.64619 11.0798,-5.64293 16.9394,0.0709 1.9283,1.88038 3.621,3.63829 3.7615,3.90631 0.2397,0.458 -5.6463,3.8851 -6.6085,3.84792 -0.2246,-0.008 -2.0264,-1.64978 -4.0039,-3.64701 -2.2291,-2.25138 -3.9308,-3.63038 -4.4782,-3.62891 -1.0247,0 -12.5079,6.37165 -12.925,7.16886 -0.3225,0.61619 2.3975,2.83847 4.4292,3.61856 1.9125,0.73434 3.1496,0.64024 4.0045,-0.30463 0.6981,-0.77178 1.1383,-0.82763 7.4001,-0.93999 l 6.6578,-0.11954 3.5918,-1.97749 c 1.9754,-1.08765 3.7774,-1.97758 4.0042,-1.97758 0.2268,0 1.1856,0.89474 2.1305,1.98834 l 1.718,1.98834 6.0348,0.0171 c 6.4173,0.0187 7.5643,0.31311 6.9293,1.77943 -0.2622,0.60568 -0.9041,0.72489 -4.6437,0.86261 -5.2232,0.19235 -8.1186,1.03522 -10.9799,3.19593 -3.1708,2.39473 -4.3005,4.43289 -4.3038,7.7641 v 2.82592 l -5.4735,-0.0489 c -3.0104,-0.0269 -7.0632,-0.17197 -9.0063,-0.32217 z m -3.9936,-30.43294 c -0.5016,-0.95825 0.084,-1.41275 2.3315,-1.80985 2.1013,-0.37125 2.2173,-0.45988 2.3683,-1.81205 0.1879,-1.682159 -0.4825,-2.121004 -2.7712,-1.814008 -1.814,0.243313 -1.9951,-0.04974 -0.7353,-1.189171 1.238,-1.120188 2.7455,-1.592709 5.0814,-1.592709 4.1439,0 6.6702,1.921558 6.3795,4.852738 l -0.1515,1.52943 h -3.2441 c -2.8111,0 -3.5808,0.15827 -5.7661,1.18526 -2.8633,1.34581 -3.1046,1.39073 -3.4924,0.65027 z"
       style="fill:#008080;stroke-width:0.425992"
       inkscape:export-xdpi="96"
       inkscape:export-ydpi="96" />
    <path
       id="path24-9"
       fill="#010101"
       d="m 53.681555,77.499867 c -1.1264,-0.375 -2.6883,-1.29697 -3.4708,-2.04876 -1.1698,-1.12418 -1.4516,-1.79549 -1.5858,-3.77796 -0.194,-2.86758 0.6726,-4.35046 3.5157,-6.01533 1.5446,-0.90451 2.4495,-1.12997 5.0167,-1.24975 4.1084,-0.19178 6.7408,0.7416 8.7984,3.11929 5.1441,5.94495 -3.4346,12.9147 -12.2745,9.97235 z m 80.171505,0.17931 c -1.8734,-0.61465 -4.5003,-2.62394 -5.1944,-3.97301 -0.7995,-1.55439 -0.6156,-3.90264 0.439,-5.60502 1.9898,-3.21224 8.3729,-4.75024 12.8174,-3.08822 5.5108,2.0605 7.1125,6.68672 3.5597,10.28122 -2.515,2.54468 -7.8181,3.63299 -11.6222,2.38494 z m 37.8167,0 c -1.8734,-0.61465 -4.5002,-2.62394 -5.1943,-3.97301 -0.7996,-1.55439 -0.6157,-3.90264 0.4389,-5.60502 1.9898,-3.21224 8.373,-4.75024 12.8174,-3.08822 5.5108,2.0605 7.1126,6.68672 3.5597,10.28122 -2.515,2.54468 -7.8181,3.63299 -11.6222,2.38494 z m -99.423205,-7.04925 c -0.1166,-0.15044 -0.5831,-1.09409 -1.0369,-2.09703 -0.4537,-1.00293 -1.6198,-2.61774 -2.5913,-3.58847 -4.6476,-4.64407 -15.2382,-5.01817 -20.6698,-0.73075 -1.5612,1.23239 -3.1541,3.48605 -3.6474,5.16087 -0.3063,1.03971 -0.538,1.19072 -1.6779,1.0941 l -1.3225,-0.1122 -0.1345,-7.54052 -0.1343,-7.54052 3.5694,-6.98654 c 2.7935,-5.46795 3.8029,-7.05144 4.644,-7.28595 1.1793,-0.3286 24.6674,-1.45034 25.2695,-1.2067 0.2053,0.0831 0.3732,5.44235 0.3732,11.90924 0,8.65899 0.1574,11.87344 0.5971,12.19584 0.4489,0.32901 6.9329,0.43762 26.123405,0.43762 14.0395,0 25.5263,0.075 25.5263,0.16618 0,0.0914 -0.5368,0.74592 -1.1929,1.45458 -0.6562,0.70866 -1.4622,2.11089 -1.7912,3.11611 l -0.5983,1.82771 H 98.005755 c -14.0509,0 -25.6422,-0.12305 -25.7586,-0.27349 z m -16.1706,-15.74509 c 4.8423,-0.379 9.0407,-0.79623 9.3298,-0.92719 0.3312,-0.15003 0.5256,-2.25758 0.5256,-5.69838 0,-4.60143 -0.1217,-5.49453 -0.7732,-5.67799 -0.4252,-0.11954 -4.0109,-0.0652 -7.9683,0.12076 -5.2172,0.24511 -7.3987,0.4872 -7.9351,0.88046 -0.8063,0.59092 -5.6994,9.64448 -5.7093,10.5631 -0.01,0.83904 1.023,1.44137 2.4572,1.43444 0.6979,0 5.2306,-0.31621 10.0732,-0.6952 z m 95.785805,15.74509 c -0.1172,-0.15044 -0.3569,-0.85999 -0.533,-1.57681 -0.1761,-0.71673 -0.9844,-2.07069 -1.796,-3.00872 l -1.4757,-1.70556 h 8.448 c 4.6465,0 8.4481,0.075 8.4481,0.16618 0,0.0914 -0.5369,0.746 -1.193,1.45466 -0.6561,0.70858 -1.4621,2.11089 -1.7911,3.11611 l -0.5983,1.82763 h -4.6481 c -2.5564,0 -4.7438,-0.12305 -4.8609,-0.27349 z m 37.8575,0.0489 c -0.1395,-0.17726 -0.398,-0.90875 -0.5741,-1.62548 -0.176,-0.71681 -0.9843,-2.07078 -1.796,-3.00881 l -1.4757,-1.70547 h 18.4362 l -0.1482,2.24698 -0.1482,2.24706 -3.4831,0.87451 c -3.6567,0.91813 -10.3772,1.52185 -10.8111,0.97121 z M 82.354655,46.650887 V 32.245327 H 204.26376 v 28.81121 H 82.354655 Z"
       style="fill:#800080;stroke-width:0.425992"
       inkscape:export-xdpi="96"
       inkscape:export-ydpi="96" />
    <path
       id="path28-4"
       fill="#010101"
       d="m 234.27846,74.447277 c -4.2988,-0.82135 -6.819,-3.31971 -6.819,-6.76002 0,-2.31833 0.919,-3.95776 2.9053,-5.18281 4.7942,-2.9567 12.3436,-1.95091 14.9475,1.99144 1.6264,2.46257 1.4343,4.88152 -0.5617,7.07044 -2.4613,2.69928 -6.1343,3.70972 -10.4723,2.88079 z m 78.0217,-0.51533 c -3.3211,-1.51704 -5.227,-3.70539 -5.2216,-5.99494 0.019,-4.3498 4.4737,-7.42383 10.292,-7.08903 6.1373,0.35315 10.4444,4.77861 8.612,8.84906 -0.7748,1.72073 -3.2744,3.79908 -5.3239,4.42669 -2.3592,0.72252 -6.568,0.62598 -8.3585,-0.19178 z m -91.4317,-7.00407 c -0.7842,-0.33415 -0.8708,-1.10861 -0.8708,-7.78522 v -7.41429 l 3.2585,-6.33488 c 1.7922,-3.48426 3.5818,-6.69658 3.9769,-7.13861 0.3975,-0.44455 1.4427,-0.89424 2.3394,-1.00636 2.3407,-0.29281 23.7872,-1.15142 24.0445,-0.96265 0.1192,0.0874 0.2166,5.52959 0.2166,12.09416 0,10.54704 0.092,11.96102 0.7871,12.15647 0.4329,0.12173 12.1884,0.22138 26.1234,0.22138 14.2021,0 25.3361,0.14057 25.3361,0.32004 0,0.17604 -0.3302,0.52095 -0.734,0.76647 -0.4036,0.24559 -1.232,1.58007 -1.8407,2.9655 l -1.107,2.519 -25.6508,-0.0944 -25.6506,-0.0943 -0.8343,-1.90908 c -1.7988,-4.11562 -6.4498,-7.06164 -12.0337,-7.62287 -3.9403,-0.39588 -9.9274,1.49429 -12.3671,3.90443 -0.5217,0.51541 -1.4665,1.98556 -2.0996,3.26696 -1.2329,2.49559 -1.5413,2.72455 -2.8938,2.14823 z m 13.7961,-15.48987 c 4.3854,-0.31197 8.4774,-0.71869 9.0929,-0.90395 1.0912,-0.32811 1.1196,-0.47627 1.1196,-5.8264 0,-4.56751 -0.1265,-5.52519 -0.7539,-5.70172 -1.3753,-0.38674 -15.256,0.50693 -15.9571,1.02731 -1.1936,0.88617 -5.7676,10.20939 -5.4556,11.12043 0.3597,1.05031 0.9818,1.06507 11.9541,0.28457 z m 96.129,15.64153 c -0.1824,-0.13364 -0.3317,-0.59132 -0.3317,-1.01696 0,-0.79598 -1.0876,-2.53628 -2.6881,-4.30161 l -0.9095,-1.00285 h 18.5725 l -0.1484,2.27935 -0.1487,2.27935 -3.9807,0.97905 c -3.7883,0.93175 -9.5681,1.36872 -10.3663,0.78367 z m -69.498,-24.00919 V 28.664785 h 84.0925 v 28.811212 h -84.0925 z"
       style="fill:#800000;stroke-width:0.425992"
       inkscape:export-xdpi="96"
       inkscape:export-ydpi="96" />
    <path
       id="path28-0"
       fill="#010101"
       d="m 157.0155,155.57577 c 4.2988,-0.82135 6.819,-3.31972 6.819,-6.76003 0,-2.31832 -0.919,-3.95776 -2.9053,-5.1828 -4.7942,-2.9567 -12.3436,-1.95091 -14.9475,1.99143 -1.6264,2.46257 -1.4343,4.88152 0.5617,7.07045 2.4613,2.69928 6.1343,3.70971 10.4723,2.88078 z m -78.0218,-0.51533 c 3.3212,-1.51704 5.2271,-3.7054 5.2216,-5.99494 -0.019,-4.3498 -4.4737,-7.42384 -10.292,-7.08903 -6.1373,0.35314 -10.4444,4.77861 -8.6119,8.84906 0.7748,1.72072 3.2744,3.79908 5.3238,4.42669 2.3592,0.72252 6.5681,0.62598 8.3585,-0.19178 z m 91.4318,-7.00407 c 0.7842,-0.33415 0.8708,-1.10861 0.8708,-7.78522 v -7.4143 l -3.2585,-6.33487 c -1.7922,-3.48427 -3.5818,-6.6966 -3.9769,-7.13862 -0.3975,-0.44456 -1.4427,-0.89425 -2.3394,-1.00636 -2.3407,-0.29281 -23.7872,-1.15142 -24.0445,-0.96266 -0.1192,0.0874 -0.2166,5.5296 -0.2166,12.09418 0,10.54704 -0.092,11.96101 -0.7871,12.15646 -0.4329,0.12174 -12.1884,0.22138 -26.1234,0.22138 -14.2021,0 -25.3361,0.14058 -25.3361,0.32005 0,0.17604 0.3302,0.52095 0.734,0.76647 0.4036,0.24559 1.232,1.58007 1.8407,2.9655 l 1.107,2.519 25.6508,-0.0944 25.6506,-0.0943 0.8343,-1.90908 c 1.7988,-4.11562 6.4498,-7.06164 12.0337,-7.62288 3.9403,-0.39587 9.9274,1.49429 12.3671,3.90444 0.5217,0.51541 1.4665,1.98556 2.0996,3.26695 1.2329,2.4956 1.5413,2.72456 2.8938,2.14824 z m -13.7961,-15.48988 c -4.3854,-0.31197 -8.4774,-0.71869 -9.0929,-0.90394 -1.0912,-0.32812 -1.1196,-0.47627 -1.1196,-5.8264 0,-4.56752 0.1265,-5.5252 0.7539,-5.70173 1.3753,-0.38675 15.256,0.50693 15.9571,1.02731 1.1936,0.88617 5.7676,10.20939 5.4556,11.12043 -0.3597,1.05031 -0.9818,1.06507 -11.9541,0.28458 z m -96.129,15.64154 c 0.1824,-0.13364 0.3317,-0.59132 0.3317,-1.01696 0,-0.79599 1.0876,-2.53628 2.688,-4.30161 l 0.9095,-1.00285 H 45.8571 l 0.1485,2.27935 0.1486,2.27935 3.9808,0.97905 c 3.7883,0.93175 9.5681,1.36872 10.3663,0.78367 z m 69.498,-24.0092 V 109.79326 H 45.9059 v 28.81123 h 84.0925 z"
       style="fill:#008080;stroke-width:0.425992"
       inkscape:export-xdpi="96"
       inkscape:export-ydpi="96" />
    <path
       id="path28-2"
       fill="#010101"
       d="m 57.761383,377.19379 c -4.2988,-0.82135 -6.819,-3.31972 -6.819,-6.76003 0,-2.31832 0.919,-3.95775 2.9053,-5.1828 4.7942,-2.9567 12.3436,-1.95091 14.9475,1.99143 1.6264,2.46258 1.4343,4.88152 -0.5617,7.07045 -2.4613,2.69928 -6.1343,3.70971 -10.4723,2.88079 z m 78.021797,-0.51533 c -3.3212,-1.51704 -5.2271,-3.7054 -5.2216,-5.99494 0.019,-4.3498 4.4737,-7.42384 10.292,-7.08903 6.1373,0.35314 10.4444,4.77861 8.6119,8.84906 -0.7748,1.72072 -3.2744,3.79908 -5.3238,4.42669 -2.3592,0.72252 -6.5681,0.62598 -8.3585,-0.19178 z m -91.431797,-7.00407 c -0.7842,-0.33415 -0.8708,-1.10861 -0.8708,-7.78522 v -7.41429 l 3.2585,-6.33488 c 1.7922,-3.48426 3.5818,-6.69659 3.9769,-7.13861 0.3975,-0.44456 1.4427,-0.89424 2.3394,-1.00636 2.3407,-0.29281 23.7872,-1.15142 24.0445,-0.96266 0.1192,0.0874 0.2166,5.5296 0.2166,12.09417 0,10.54704 0.092,11.96101 0.7871,12.15646 0.4329,0.12174 12.1884,0.22138 26.123397,0.22138 14.2021,0 25.3361,0.14058 25.3361,0.32005 0,0.17604 -0.3302,0.52095 -0.734,0.76647 -0.4036,0.24559 -1.232,1.58007 -1.8407,2.9655 l -1.107,2.519 -25.6508,-0.0944 -25.650597,-0.0943 -0.8343,-1.90908 c -1.7988,-4.11562 -6.4498,-7.06164 -12.0337,-7.62288 -3.9403,-0.39587 -9.9274,1.4943 -12.3671,3.90444 -0.5217,0.51541 -1.4665,1.98556 -2.0996,3.26695 -1.2329,2.4956 -1.5413,2.72456 -2.8938,2.14824 z m 13.7961,-15.48988 c 4.3854,-0.31197 8.4774,-0.71868 9.0929,-0.90394 1.0912,-0.32812 1.1196,-0.47627 1.1196,-5.8264 0,-4.56751 -0.1265,-5.52519 -0.7539,-5.70172 -1.3753,-0.38674 -15.256,0.50693 -15.9571,1.02731 -1.1936,0.88617 -5.7676,10.20939 -5.4556,11.12043 0.3597,1.0503 0.9818,1.06506 11.9541,0.28457 z m 96.128997,15.64154 c -0.1824,-0.13364 -0.3317,-0.59132 -0.3317,-1.01696 0,-0.79599 -1.0876,-2.53628 -2.688,-4.30161 l -0.9095,-1.00285 h 18.5725 l -0.1485,2.27935 -0.1486,2.27935 -3.9808,0.97905 c -3.7883,0.93175 -9.5681,1.36872 -10.3663,0.78367 z M 84.778483,345.81686 V 331.4113 h 84.092497 v 28.81121 H 84.778483 Z"
       style="fill:#800000;stroke-width:0.425992"
       inkscape:export-xdpi="96"
       inkscape:export-ydpi="96" />
    <path
       id="path10-6"
       fill="#010101"
       d="m 192.38868,220.21666 c -3.0343,-0.53767 -5.8712,-2.17678 -7.0172,-4.05439 -0.8833,-1.4474 -0.8137,-4.32484 0.1393,-5.73833 1.6983,-2.51981 5.0748,-3.92596 9.3752,-3.90411 2.634,0.0131 5.9157,0.89767 7.2872,1.96388 1.2146,0.94406 2.47,2.94186 2.6983,4.2937 0.433,2.56442 -2.4694,6.03375 -5.8571,7.00106 -1.726,0.4929 -5.0694,0.71404 -6.6253,0.43835 z m 94.6711,-0.27389 c -2.4502,-0.59394 -5.0617,-2.15884 -6.1016,-3.65623 -0.5004,-0.72064 -0.638,-1.56906 -0.5311,-3.27601 0.1315,-2.09605 0.2721,-2.42514 1.5641,-3.65149 4.3305,-4.11098 13.9721,-3.72644 17.2451,0.68754 1.5201,2.04998 1.6897,3.69928 0.5866,5.69993 -2.0469,3.7111 -7.4439,5.48597 -12.7631,4.19667 z m -113.0946,-7.02763 c -1.4742,-0.36 -1.656,-0.97545 -1.656,-5.60364 0,-3.20279 0.1539,-4.70344 0.5175,-5.0415 0.4047,-0.37647 4.7516,-0.97081 19.9423,-2.72692 l 19.4249,-2.2456 9.3695,-6.38086 9.3694,-6.38087 h 53.9825 l 12.3179,6.67343 c 6.775,3.67042 12.737,6.98777 13.2496,7.37198 0.9076,0.68053 0.9315,0.86105 0.9315,6.99453 0,7.57453 0.097,7.39433 -3.9568,7.39433 h -2.7816 l -0.6945,-1.69758 c -0.9838,-2.40516 -1.7537,-3.27747 -4.2456,-4.81172 -3.1868,-1.96184 -5.1802,-2.48736 -9.4362,-2.48736 -4.2112,0 -6.4485,0.57453 -9.3647,2.40477 -2.029,1.27323 -4.2917,4.06962 -4.3032,5.31872 -0.016,1.49176 1.7254,1.42319 -34.1335,1.34565 l -33.4663,-0.0726 -0.6902,-1.69757 c -0.9771,-2.40223 -1.7474,-3.27634 -4.2416,-4.8118 -3.1205,-1.92099 -5.1942,-2.47962 -9.2291,-2.48614 -4.095,-0.008 -6.2242,0.50872 -9.1434,2.21314 -2.3332,1.3622 -4.7259,4.14579 -4.7259,5.49763 0,0.4108 -0.2236,0.89979 -0.4968,1.08651 -0.4957,0.33872 -5.3093,0.44407 -6.5413,0.14311 z m 81.1456,-13.94357 c 0.5062,-0.2182 0.6449,-1.20907 0.7504,-5.35689 0.085,-3.31988 -0.028,-5.29077 -0.325,-5.66936 -0.4422,-0.56466 -0.7785,-0.58032 -12.4554,-0.58032 h -12.0009 l -7.2356,4.73451 c -5.886,3.85151 -7.236,4.87769 -7.236,5.50097 0,1.64131 0.078,1.64775 19.8607,1.64302 10.6094,0 18.2761,-0.11448 18.6419,-0.27218 z m 36.1931,-0.55088 c 0.6935,-0.44545 1.0678,-0.98744 1.0678,-1.54599 0,-0.73206 -0.9422,-1.50399 -6.3285,-5.18492 l -6.3285,-4.32486 h -9.7838 c -5.3814,0 -10.0786,0.0775 -10.4388,0.17172 -0.5658,0.14832 -0.655,0.91129 -0.655,5.60193 0,3.93077 0.1408,5.52674 0.5112,5.77967 0.3912,0.26737 4.0719,0.3304 15.6995,0.26884 l 15.1883,-0.0807 1.068,-0.68591 z"
       style="fill:#800000;stroke-width:0.342249"
       inkscape:export-xdpi="96"
       inkscape:export-ydpi="96" />
    <path
       id="path12-9"
       fill="#010101"
       d="m 56.75688,223.29562 c -2.4189,-0.47138 -6.2682,-2.98198 -7.4191,-4.83879 -1.842,-2.9722 -0.8179,-7.60869 2.2061,-9.98842 4.3062,-3.38845 12.9965,-3.48972 17.4345,-0.20319 4.7998,3.5543 4.8626,9.24004 0.1403,12.7014 -3.3005,2.41902 -7.6728,3.24281 -12.362,2.32892 z m 7.521,-2.71526 c 4.2457,-1.55072 6.0736,-4.47228 4.7864,-7.64953 -1.6015,-3.95263 -6.9861,-5.87933 -12.0754,-4.32095 -2.3637,0.72383 -3.4941,1.49136 -4.6579,3.16267 -2.3624,3.39245 -0.271,7.36473 4.78,9.07876 2.6931,0.91389 4.0647,0.86204 7.1668,-0.27095 z m 45.0139,2.63021 c -4.2615,-0.97717 -7.6106,-3.9333 -8.3809,-7.39831 -0.785,-3.52927 2.8514,-8.136 7.435,-9.41902 3.4869,-0.97603 8.5923,-0.63038 11.3017,0.76524 1.1672,0.60127 2.7935,1.79322 3.6138,2.64874 1.8992,1.98043 2.3756,5.72797 1.0514,8.26956 -2.2418,4.30233 -8.8292,6.55364 -15.0212,5.13379 z m 7.0324,-2.35926 c 6.7328,-2.28472 7.73,-8.34171 1.9093,-11.59595 -1.5835,-0.88519 -2.2809,-1.02406 -5.1436,-1.02406 -2.8627,0 -3.5601,0.13887 -5.1436,1.02406 -4.8558,2.71468 -5.0734,8.24444 -0.4169,10.59742 3.6214,1.82999 5.662,2.0618 8.7948,0.99878 z m -32.393,-3.69251 c -5.5904,-0.43224 -7.6967,-1.53971 -8.9322,-4.69659 -1.1363,-2.90386 -2.8838,-4.92751 -5.5377,-6.41291 -2.3342,-1.30634 -6.2213,-2.37712 -8.6287,-2.37712 -1.6201,0 -2.4775,-1.1802 -2.4775,-3.4103 0,-1.98622 1.8689,-3.39448 6.5821,-4.95988 3.7732,-1.25326 4.6317,-1.34939 5.0426,-0.5649 0.1576,0.30088 0.4792,0.54705 0.7149,0.54705 0.2356,0 3.8634,-1.88732 8.0619,-4.19406 10.2762,-5.6462 11.0798,-5.64294 16.9394,0.0709 1.9284,1.88038 3.6211,3.63829 3.7615,3.90631 0.2398,0.45801 -5.6461,3.88511 -6.6085,3.84793 -0.2246,-0.008 -2.0264,-1.64979 -4.0038,-3.64693 -2.2293,-2.25147 -3.9309,-3.63038 -4.4783,-3.629 -1.0247,0 -12.5074,6.37166 -12.9249,7.16887 -0.3226,0.61619 2.3973,2.83846 4.4292,3.61863 1.9124,0.73435 3.1497,0.64017 4.0044,-0.30463 0.6983,-0.77177 1.1383,-0.8277 7.4002,-0.94007 l 6.6577,-0.11953 3.5918,-1.9775 c 1.9755,-1.08765 3.7774,-1.97757 4.0042,-1.97757 0.2269,0 1.1856,0.89473 2.1305,1.98834 l 1.718,1.98834 6.0348,0.0171 c 6.4174,0.0187 7.5643,0.31311 6.9294,1.77935 -0.2623,0.60568 -0.9042,0.72489 -4.6438,0.86269 -5.2232,0.19235 -8.1186,1.03522 -10.9798,3.19593 -3.1708,2.39473 -4.3007,4.43289 -4.3039,7.76402 v 2.82599 l -5.4734,-0.0489 c -3.0104,-0.0269 -7.0633,-0.17197 -9.0064,-0.32215 z m -3.9934,-30.43303 c -0.5017,-0.95825 0.084,-1.41275 2.3315,-1.80985 2.1013,-0.37125 2.2171,-0.45988 2.3682,-1.81205 0.1878,-1.68216 -0.4825,-2.121 -2.7712,-1.814 -1.8141,0.24331 -1.9951,-0.0497 -0.7354,-1.18917 1.2381,-1.12019 2.7455,-1.59271 5.0814,-1.59271 4.1441,0 6.6702,1.92155 6.3796,4.85273 l -0.1516,1.52944 h -3.2441 c -2.8111,0 -3.5808,0.15826 -5.766,1.18525 -2.8633,1.34581 -3.1046,1.39074 -3.4923,0.65028 z"
       style="fill:#800080;stroke-width:0.425992"
       inkscape:export-xdpi="96"
       inkscape:export-ydpi="96" />
  </g>
</svg>
